%TF.GenerationSoftware,KiCad,Pcbnew,6.0.11-2627ca5db0~126~ubuntu20.04.1*%
%TF.CreationDate,2023-10-30T14:57:03+01:00*%
%TF.ProjectId,usb-interface,7573622d-696e-4746-9572-666163652e6b,rev?*%
%TF.SameCoordinates,Original*%
%TF.FileFunction,Legend,Top*%
%TF.FilePolarity,Positive*%
%FSLAX46Y46*%
G04 Gerber Fmt 4.6, Leading zero omitted, Abs format (unit mm)*
G04 Created by KiCad (PCBNEW 6.0.11-2627ca5db0~126~ubuntu20.04.1) date 2023-10-30 14:57:03*
%MOMM*%
%LPD*%
G01*
G04 APERTURE LIST*
%ADD10C,0.150000*%
%ADD11C,0.120000*%
G04 APERTURE END LIST*
D10*
X111523809Y-80952380D02*
X111619047Y-80952380D01*
X111714285Y-81000000D01*
X111761904Y-81047619D01*
X111809523Y-81142857D01*
X111857142Y-81333333D01*
X111857142Y-81571428D01*
X111809523Y-81761904D01*
X111761904Y-81857142D01*
X111714285Y-81904761D01*
X111619047Y-81952380D01*
X111523809Y-81952380D01*
X111428571Y-81904761D01*
X111380952Y-81857142D01*
X111333333Y-81761904D01*
X111285714Y-81571428D01*
X111285714Y-81333333D01*
X111333333Y-81142857D01*
X111380952Y-81047619D01*
X111428571Y-81000000D01*
X111523809Y-80952380D01*
X112714285Y-80952380D02*
X112523809Y-80952380D01*
X112428571Y-81000000D01*
X112380952Y-81047619D01*
X112285714Y-81190476D01*
X112238095Y-81380952D01*
X112238095Y-81761904D01*
X112285714Y-81857142D01*
X112333333Y-81904761D01*
X112428571Y-81952380D01*
X112619047Y-81952380D01*
X112714285Y-81904761D01*
X112761904Y-81857142D01*
X112809523Y-81761904D01*
X112809523Y-81523809D01*
X112761904Y-81428571D01*
X112714285Y-81380952D01*
X112619047Y-81333333D01*
X112428571Y-81333333D01*
X112333333Y-81380952D01*
X112285714Y-81428571D01*
X112238095Y-81523809D01*
X113428571Y-80952380D02*
X113523809Y-80952380D01*
X113619047Y-81000000D01*
X113666666Y-81047619D01*
X113714285Y-81142857D01*
X113761904Y-81333333D01*
X113761904Y-81571428D01*
X113714285Y-81761904D01*
X113666666Y-81857142D01*
X113619047Y-81904761D01*
X113523809Y-81952380D01*
X113428571Y-81952380D01*
X113333333Y-81904761D01*
X113285714Y-81857142D01*
X113238095Y-81761904D01*
X113190476Y-81571428D01*
X113190476Y-81333333D01*
X113238095Y-81142857D01*
X113285714Y-81047619D01*
X113333333Y-81000000D01*
X113428571Y-80952380D01*
X114095238Y-80952380D02*
X114714285Y-80952380D01*
X114380952Y-81333333D01*
X114523809Y-81333333D01*
X114619047Y-81380952D01*
X114666666Y-81428571D01*
X114714285Y-81523809D01*
X114714285Y-81761904D01*
X114666666Y-81857142D01*
X114619047Y-81904761D01*
X114523809Y-81952380D01*
X114238095Y-81952380D01*
X114142857Y-81904761D01*
X114095238Y-81857142D01*
X111857142Y-87952380D02*
X111285714Y-87952380D01*
X111571428Y-87952380D02*
X111571428Y-86952380D01*
X111476190Y-87095238D01*
X111380952Y-87190476D01*
X111285714Y-87238095D01*
X112238095Y-87047619D02*
X112285714Y-87000000D01*
X112380952Y-86952380D01*
X112619047Y-86952380D01*
X112714285Y-87000000D01*
X112761904Y-87047619D01*
X112809523Y-87142857D01*
X112809523Y-87238095D01*
X112761904Y-87380952D01*
X112190476Y-87952380D01*
X112809523Y-87952380D01*
X113428571Y-86952380D02*
X113523809Y-86952380D01*
X113619047Y-87000000D01*
X113666666Y-87047619D01*
X113714285Y-87142857D01*
X113761904Y-87333333D01*
X113761904Y-87571428D01*
X113714285Y-87761904D01*
X113666666Y-87857142D01*
X113619047Y-87904761D01*
X113523809Y-87952380D01*
X113428571Y-87952380D01*
X113333333Y-87904761D01*
X113285714Y-87857142D01*
X113238095Y-87761904D01*
X113190476Y-87571428D01*
X113190476Y-87333333D01*
X113238095Y-87142857D01*
X113285714Y-87047619D01*
X113333333Y-87000000D01*
X113428571Y-86952380D01*
X114666666Y-86952380D02*
X114190476Y-86952380D01*
X114142857Y-87428571D01*
X114190476Y-87380952D01*
X114285714Y-87333333D01*
X114523809Y-87333333D01*
X114619047Y-87380952D01*
X114666666Y-87428571D01*
X114714285Y-87523809D01*
X114714285Y-87761904D01*
X114666666Y-87857142D01*
X114619047Y-87904761D01*
X114523809Y-87952380D01*
X114285714Y-87952380D01*
X114190476Y-87904761D01*
X114142857Y-87857142D01*
X111523809Y-75952380D02*
X111619047Y-75952380D01*
X111714285Y-76000000D01*
X111761904Y-76047619D01*
X111809523Y-76142857D01*
X111857142Y-76333333D01*
X111857142Y-76571428D01*
X111809523Y-76761904D01*
X111761904Y-76857142D01*
X111714285Y-76904761D01*
X111619047Y-76952380D01*
X111523809Y-76952380D01*
X111428571Y-76904761D01*
X111380952Y-76857142D01*
X111333333Y-76761904D01*
X111285714Y-76571428D01*
X111285714Y-76333333D01*
X111333333Y-76142857D01*
X111380952Y-76047619D01*
X111428571Y-76000000D01*
X111523809Y-75952380D01*
X112714285Y-76285714D02*
X112714285Y-76952380D01*
X112476190Y-75904761D02*
X112238095Y-76619047D01*
X112857142Y-76619047D01*
X113428571Y-75952380D02*
X113523809Y-75952380D01*
X113619047Y-76000000D01*
X113666666Y-76047619D01*
X113714285Y-76142857D01*
X113761904Y-76333333D01*
X113761904Y-76571428D01*
X113714285Y-76761904D01*
X113666666Y-76857142D01*
X113619047Y-76904761D01*
X113523809Y-76952380D01*
X113428571Y-76952380D01*
X113333333Y-76904761D01*
X113285714Y-76857142D01*
X113238095Y-76761904D01*
X113190476Y-76571428D01*
X113190476Y-76333333D01*
X113238095Y-76142857D01*
X113285714Y-76047619D01*
X113333333Y-76000000D01*
X113428571Y-75952380D01*
X114142857Y-76047619D02*
X114190476Y-76000000D01*
X114285714Y-75952380D01*
X114523809Y-75952380D01*
X114619047Y-76000000D01*
X114666666Y-76047619D01*
X114714285Y-76142857D01*
X114714285Y-76238095D01*
X114666666Y-76380952D01*
X114095238Y-76952380D01*
X114714285Y-76952380D01*
%TO.C,C3*%
X12633333Y-78557142D02*
X12585714Y-78604761D01*
X12442857Y-78652380D01*
X12347619Y-78652380D01*
X12204761Y-78604761D01*
X12109523Y-78509523D01*
X12061904Y-78414285D01*
X12014285Y-78223809D01*
X12014285Y-78080952D01*
X12061904Y-77890476D01*
X12109523Y-77795238D01*
X12204761Y-77700000D01*
X12347619Y-77652380D01*
X12442857Y-77652380D01*
X12585714Y-77700000D01*
X12633333Y-77747619D01*
X12966666Y-77652380D02*
X13585714Y-77652380D01*
X13252380Y-78033333D01*
X13395238Y-78033333D01*
X13490476Y-78080952D01*
X13538095Y-78128571D01*
X13585714Y-78223809D01*
X13585714Y-78461904D01*
X13538095Y-78557142D01*
X13490476Y-78604761D01*
X13395238Y-78652380D01*
X13109523Y-78652380D01*
X13014285Y-78604761D01*
X12966666Y-78557142D01*
%TO.C,C6*%
X48458333Y-78707142D02*
X48410714Y-78754761D01*
X48267857Y-78802380D01*
X48172619Y-78802380D01*
X48029761Y-78754761D01*
X47934523Y-78659523D01*
X47886904Y-78564285D01*
X47839285Y-78373809D01*
X47839285Y-78230952D01*
X47886904Y-78040476D01*
X47934523Y-77945238D01*
X48029761Y-77850000D01*
X48172619Y-77802380D01*
X48267857Y-77802380D01*
X48410714Y-77850000D01*
X48458333Y-77897619D01*
X49315476Y-77802380D02*
X49125000Y-77802380D01*
X49029761Y-77850000D01*
X48982142Y-77897619D01*
X48886904Y-78040476D01*
X48839285Y-78230952D01*
X48839285Y-78611904D01*
X48886904Y-78707142D01*
X48934523Y-78754761D01*
X49029761Y-78802380D01*
X49220238Y-78802380D01*
X49315476Y-78754761D01*
X49363095Y-78707142D01*
X49410714Y-78611904D01*
X49410714Y-78373809D01*
X49363095Y-78278571D01*
X49315476Y-78230952D01*
X49220238Y-78183333D01*
X49029761Y-78183333D01*
X48934523Y-78230952D01*
X48886904Y-78278571D01*
X48839285Y-78373809D01*
%TO.C,C7*%
X55827142Y-87141666D02*
X55874761Y-87189285D01*
X55922380Y-87332142D01*
X55922380Y-87427380D01*
X55874761Y-87570238D01*
X55779523Y-87665476D01*
X55684285Y-87713095D01*
X55493809Y-87760714D01*
X55350952Y-87760714D01*
X55160476Y-87713095D01*
X55065238Y-87665476D01*
X54970000Y-87570238D01*
X54922380Y-87427380D01*
X54922380Y-87332142D01*
X54970000Y-87189285D01*
X55017619Y-87141666D01*
X54922380Y-86808333D02*
X54922380Y-86141666D01*
X55922380Y-86570238D01*
%TO.C,C8*%
X55557142Y-90366666D02*
X55604761Y-90414285D01*
X55652380Y-90557142D01*
X55652380Y-90652380D01*
X55604761Y-90795238D01*
X55509523Y-90890476D01*
X55414285Y-90938095D01*
X55223809Y-90985714D01*
X55080952Y-90985714D01*
X54890476Y-90938095D01*
X54795238Y-90890476D01*
X54700000Y-90795238D01*
X54652380Y-90652380D01*
X54652380Y-90557142D01*
X54700000Y-90414285D01*
X54747619Y-90366666D01*
X55080952Y-89795238D02*
X55033333Y-89890476D01*
X54985714Y-89938095D01*
X54890476Y-89985714D01*
X54842857Y-89985714D01*
X54747619Y-89938095D01*
X54700000Y-89890476D01*
X54652380Y-89795238D01*
X54652380Y-89604761D01*
X54700000Y-89509523D01*
X54747619Y-89461904D01*
X54842857Y-89414285D01*
X54890476Y-89414285D01*
X54985714Y-89461904D01*
X55033333Y-89509523D01*
X55080952Y-89604761D01*
X55080952Y-89795238D01*
X55128571Y-89890476D01*
X55176190Y-89938095D01*
X55271428Y-89985714D01*
X55461904Y-89985714D01*
X55557142Y-89938095D01*
X55604761Y-89890476D01*
X55652380Y-89795238D01*
X55652380Y-89604761D01*
X55604761Y-89509523D01*
X55557142Y-89461904D01*
X55461904Y-89414285D01*
X55271428Y-89414285D01*
X55176190Y-89461904D01*
X55128571Y-89509523D01*
X55080952Y-89604761D01*
%TO.C,C9*%
X61757142Y-77566666D02*
X61804761Y-77614285D01*
X61852380Y-77757142D01*
X61852380Y-77852380D01*
X61804761Y-77995238D01*
X61709523Y-78090476D01*
X61614285Y-78138095D01*
X61423809Y-78185714D01*
X61280952Y-78185714D01*
X61090476Y-78138095D01*
X60995238Y-78090476D01*
X60900000Y-77995238D01*
X60852380Y-77852380D01*
X60852380Y-77757142D01*
X60900000Y-77614285D01*
X60947619Y-77566666D01*
X61852380Y-77090476D02*
X61852380Y-76900000D01*
X61804761Y-76804761D01*
X61757142Y-76757142D01*
X61614285Y-76661904D01*
X61423809Y-76614285D01*
X61042857Y-76614285D01*
X60947619Y-76661904D01*
X60900000Y-76709523D01*
X60852380Y-76804761D01*
X60852380Y-76995238D01*
X60900000Y-77090476D01*
X60947619Y-77138095D01*
X61042857Y-77185714D01*
X61280952Y-77185714D01*
X61376190Y-77138095D01*
X61423809Y-77090476D01*
X61471428Y-76995238D01*
X61471428Y-76804761D01*
X61423809Y-76709523D01*
X61376190Y-76661904D01*
X61280952Y-76614285D01*
%TO.C,C10*%
X60257142Y-77542857D02*
X60304761Y-77590476D01*
X60352380Y-77733333D01*
X60352380Y-77828571D01*
X60304761Y-77971428D01*
X60209523Y-78066666D01*
X60114285Y-78114285D01*
X59923809Y-78161904D01*
X59780952Y-78161904D01*
X59590476Y-78114285D01*
X59495238Y-78066666D01*
X59400000Y-77971428D01*
X59352380Y-77828571D01*
X59352380Y-77733333D01*
X59400000Y-77590476D01*
X59447619Y-77542857D01*
X60352380Y-76590476D02*
X60352380Y-77161904D01*
X60352380Y-76876190D02*
X59352380Y-76876190D01*
X59495238Y-76971428D01*
X59590476Y-77066666D01*
X59638095Y-77161904D01*
X59352380Y-75971428D02*
X59352380Y-75876190D01*
X59400000Y-75780952D01*
X59447619Y-75733333D01*
X59542857Y-75685714D01*
X59733333Y-75638095D01*
X59971428Y-75638095D01*
X60161904Y-75685714D01*
X60257142Y-75733333D01*
X60304761Y-75780952D01*
X60352380Y-75876190D01*
X60352380Y-75971428D01*
X60304761Y-76066666D01*
X60257142Y-76114285D01*
X60161904Y-76161904D01*
X59971428Y-76209523D01*
X59733333Y-76209523D01*
X59542857Y-76161904D01*
X59447619Y-76114285D01*
X59400000Y-76066666D01*
X59352380Y-75971428D01*
%TO.C,C11*%
X63057142Y-83542857D02*
X63104761Y-83590476D01*
X63152380Y-83733333D01*
X63152380Y-83828571D01*
X63104761Y-83971428D01*
X63009523Y-84066666D01*
X62914285Y-84114285D01*
X62723809Y-84161904D01*
X62580952Y-84161904D01*
X62390476Y-84114285D01*
X62295238Y-84066666D01*
X62200000Y-83971428D01*
X62152380Y-83828571D01*
X62152380Y-83733333D01*
X62200000Y-83590476D01*
X62247619Y-83542857D01*
X63152380Y-82590476D02*
X63152380Y-83161904D01*
X63152380Y-82876190D02*
X62152380Y-82876190D01*
X62295238Y-82971428D01*
X62390476Y-83066666D01*
X62438095Y-83161904D01*
X63152380Y-81638095D02*
X63152380Y-82209523D01*
X63152380Y-81923809D02*
X62152380Y-81923809D01*
X62295238Y-82019047D01*
X62390476Y-82114285D01*
X62438095Y-82209523D01*
%TO.C,C12*%
X80157142Y-94048570D02*
X80204761Y-94096189D01*
X80252380Y-94239046D01*
X80252380Y-94334284D01*
X80204761Y-94477141D01*
X80109523Y-94572379D01*
X80014285Y-94619998D01*
X79823809Y-94667617D01*
X79680952Y-94667617D01*
X79490476Y-94619998D01*
X79395238Y-94572379D01*
X79300000Y-94477141D01*
X79252380Y-94334284D01*
X79252380Y-94239046D01*
X79300000Y-94096189D01*
X79347619Y-94048570D01*
X80252380Y-93096189D02*
X80252380Y-93667617D01*
X80252380Y-93381903D02*
X79252380Y-93381903D01*
X79395238Y-93477141D01*
X79490476Y-93572379D01*
X79538095Y-93667617D01*
X79347619Y-92715236D02*
X79300000Y-92667617D01*
X79252380Y-92572379D01*
X79252380Y-92334284D01*
X79300000Y-92239046D01*
X79347619Y-92191427D01*
X79442857Y-92143808D01*
X79538095Y-92143808D01*
X79680952Y-92191427D01*
X80252380Y-92762855D01*
X80252380Y-92143808D01*
%TO.C,C13*%
X84457142Y-89248570D02*
X84504761Y-89296189D01*
X84552380Y-89439046D01*
X84552380Y-89534284D01*
X84504761Y-89677141D01*
X84409523Y-89772379D01*
X84314285Y-89819998D01*
X84123809Y-89867617D01*
X83980952Y-89867617D01*
X83790476Y-89819998D01*
X83695238Y-89772379D01*
X83600000Y-89677141D01*
X83552380Y-89534284D01*
X83552380Y-89439046D01*
X83600000Y-89296189D01*
X83647619Y-89248570D01*
X84552380Y-88296189D02*
X84552380Y-88867617D01*
X84552380Y-88581903D02*
X83552380Y-88581903D01*
X83695238Y-88677141D01*
X83790476Y-88772379D01*
X83838095Y-88867617D01*
X83552380Y-87962855D02*
X83552380Y-87343808D01*
X83933333Y-87677141D01*
X83933333Y-87534284D01*
X83980952Y-87439046D01*
X84028571Y-87391427D01*
X84123809Y-87343808D01*
X84361904Y-87343808D01*
X84457142Y-87391427D01*
X84504761Y-87439046D01*
X84552380Y-87534284D01*
X84552380Y-87819998D01*
X84504761Y-87915236D01*
X84457142Y-87962855D01*
%TO.C,C14*%
X72557142Y-61242857D02*
X72604761Y-61290476D01*
X72652380Y-61433333D01*
X72652380Y-61528571D01*
X72604761Y-61671428D01*
X72509523Y-61766666D01*
X72414285Y-61814285D01*
X72223809Y-61861904D01*
X72080952Y-61861904D01*
X71890476Y-61814285D01*
X71795238Y-61766666D01*
X71700000Y-61671428D01*
X71652380Y-61528571D01*
X71652380Y-61433333D01*
X71700000Y-61290476D01*
X71747619Y-61242857D01*
X72652380Y-60290476D02*
X72652380Y-60861904D01*
X72652380Y-60576190D02*
X71652380Y-60576190D01*
X71795238Y-60671428D01*
X71890476Y-60766666D01*
X71938095Y-60861904D01*
X71985714Y-59433333D02*
X72652380Y-59433333D01*
X71604761Y-59671428D02*
X72319047Y-59909523D01*
X72319047Y-59290476D01*
%TO.C,C15*%
X105457142Y-102342857D02*
X105504761Y-102390476D01*
X105552380Y-102533333D01*
X105552380Y-102628571D01*
X105504761Y-102771428D01*
X105409523Y-102866666D01*
X105314285Y-102914285D01*
X105123809Y-102961904D01*
X104980952Y-102961904D01*
X104790476Y-102914285D01*
X104695238Y-102866666D01*
X104600000Y-102771428D01*
X104552380Y-102628571D01*
X104552380Y-102533333D01*
X104600000Y-102390476D01*
X104647619Y-102342857D01*
X105552380Y-101390476D02*
X105552380Y-101961904D01*
X105552380Y-101676190D02*
X104552380Y-101676190D01*
X104695238Y-101771428D01*
X104790476Y-101866666D01*
X104838095Y-101961904D01*
X104552380Y-100485714D02*
X104552380Y-100961904D01*
X105028571Y-101009523D01*
X104980952Y-100961904D01*
X104933333Y-100866666D01*
X104933333Y-100628571D01*
X104980952Y-100533333D01*
X105028571Y-100485714D01*
X105123809Y-100438095D01*
X105361904Y-100438095D01*
X105457142Y-100485714D01*
X105504761Y-100533333D01*
X105552380Y-100628571D01*
X105552380Y-100866666D01*
X105504761Y-100961904D01*
X105457142Y-101009523D01*
%TO.C,C16*%
X100957142Y-104542857D02*
X101004761Y-104590476D01*
X101052380Y-104733333D01*
X101052380Y-104828571D01*
X101004761Y-104971428D01*
X100909523Y-105066666D01*
X100814285Y-105114285D01*
X100623809Y-105161904D01*
X100480952Y-105161904D01*
X100290476Y-105114285D01*
X100195238Y-105066666D01*
X100100000Y-104971428D01*
X100052380Y-104828571D01*
X100052380Y-104733333D01*
X100100000Y-104590476D01*
X100147619Y-104542857D01*
X101052380Y-103590476D02*
X101052380Y-104161904D01*
X101052380Y-103876190D02*
X100052380Y-103876190D01*
X100195238Y-103971428D01*
X100290476Y-104066666D01*
X100338095Y-104161904D01*
X100052380Y-102733333D02*
X100052380Y-102923809D01*
X100100000Y-103019047D01*
X100147619Y-103066666D01*
X100290476Y-103161904D01*
X100480952Y-103209523D01*
X100861904Y-103209523D01*
X100957142Y-103161904D01*
X101004761Y-103114285D01*
X101052380Y-103019047D01*
X101052380Y-102828571D01*
X101004761Y-102733333D01*
X100957142Y-102685714D01*
X100861904Y-102638095D01*
X100623809Y-102638095D01*
X100528571Y-102685714D01*
X100480952Y-102733333D01*
X100433333Y-102828571D01*
X100433333Y-103019047D01*
X100480952Y-103114285D01*
X100528571Y-103161904D01*
X100623809Y-103209523D01*
%TO.C,C17*%
X72107142Y-68842857D02*
X72154761Y-68890476D01*
X72202380Y-69033333D01*
X72202380Y-69128571D01*
X72154761Y-69271428D01*
X72059523Y-69366666D01*
X71964285Y-69414285D01*
X71773809Y-69461904D01*
X71630952Y-69461904D01*
X71440476Y-69414285D01*
X71345238Y-69366666D01*
X71250000Y-69271428D01*
X71202380Y-69128571D01*
X71202380Y-69033333D01*
X71250000Y-68890476D01*
X71297619Y-68842857D01*
X72202380Y-67890476D02*
X72202380Y-68461904D01*
X72202380Y-68176190D02*
X71202380Y-68176190D01*
X71345238Y-68271428D01*
X71440476Y-68366666D01*
X71488095Y-68461904D01*
X71202380Y-67557142D02*
X71202380Y-66890476D01*
X72202380Y-67319047D01*
%TO.C,C18*%
X65307142Y-89682142D02*
X65259523Y-89729761D01*
X65116666Y-89777380D01*
X65021428Y-89777380D01*
X64878571Y-89729761D01*
X64783333Y-89634523D01*
X64735714Y-89539285D01*
X64688095Y-89348809D01*
X64688095Y-89205952D01*
X64735714Y-89015476D01*
X64783333Y-88920238D01*
X64878571Y-88825000D01*
X65021428Y-88777380D01*
X65116666Y-88777380D01*
X65259523Y-88825000D01*
X65307142Y-88872619D01*
X66259523Y-89777380D02*
X65688095Y-89777380D01*
X65973809Y-89777380D02*
X65973809Y-88777380D01*
X65878571Y-88920238D01*
X65783333Y-89015476D01*
X65688095Y-89063095D01*
X66830952Y-89205952D02*
X66735714Y-89158333D01*
X66688095Y-89110714D01*
X66640476Y-89015476D01*
X66640476Y-88967857D01*
X66688095Y-88872619D01*
X66735714Y-88825000D01*
X66830952Y-88777380D01*
X67021428Y-88777380D01*
X67116666Y-88825000D01*
X67164285Y-88872619D01*
X67211904Y-88967857D01*
X67211904Y-89015476D01*
X67164285Y-89110714D01*
X67116666Y-89158333D01*
X67021428Y-89205952D01*
X66830952Y-89205952D01*
X66735714Y-89253571D01*
X66688095Y-89301190D01*
X66640476Y-89396428D01*
X66640476Y-89586904D01*
X66688095Y-89682142D01*
X66735714Y-89729761D01*
X66830952Y-89777380D01*
X67021428Y-89777380D01*
X67116666Y-89729761D01*
X67164285Y-89682142D01*
X67211904Y-89586904D01*
X67211904Y-89396428D01*
X67164285Y-89301190D01*
X67116666Y-89253571D01*
X67021428Y-89205952D01*
%TO.C,C19*%
X68207142Y-85757142D02*
X68159523Y-85804761D01*
X68016666Y-85852380D01*
X67921428Y-85852380D01*
X67778571Y-85804761D01*
X67683333Y-85709523D01*
X67635714Y-85614285D01*
X67588095Y-85423809D01*
X67588095Y-85280952D01*
X67635714Y-85090476D01*
X67683333Y-84995238D01*
X67778571Y-84900000D01*
X67921428Y-84852380D01*
X68016666Y-84852380D01*
X68159523Y-84900000D01*
X68207142Y-84947619D01*
X69159523Y-85852380D02*
X68588095Y-85852380D01*
X68873809Y-85852380D02*
X68873809Y-84852380D01*
X68778571Y-84995238D01*
X68683333Y-85090476D01*
X68588095Y-85138095D01*
X69635714Y-85852380D02*
X69826190Y-85852380D01*
X69921428Y-85804761D01*
X69969047Y-85757142D01*
X70064285Y-85614285D01*
X70111904Y-85423809D01*
X70111904Y-85042857D01*
X70064285Y-84947619D01*
X70016666Y-84900000D01*
X69921428Y-84852380D01*
X69730952Y-84852380D01*
X69635714Y-84900000D01*
X69588095Y-84947619D01*
X69540476Y-85042857D01*
X69540476Y-85280952D01*
X69588095Y-85376190D01*
X69635714Y-85423809D01*
X69730952Y-85471428D01*
X69921428Y-85471428D01*
X70016666Y-85423809D01*
X70064285Y-85376190D01*
X70111904Y-85280952D01*
%TO.C,C20*%
X101257142Y-63342857D02*
X101304761Y-63390476D01*
X101352380Y-63533333D01*
X101352380Y-63628571D01*
X101304761Y-63771428D01*
X101209523Y-63866666D01*
X101114285Y-63914285D01*
X100923809Y-63961904D01*
X100780952Y-63961904D01*
X100590476Y-63914285D01*
X100495238Y-63866666D01*
X100400000Y-63771428D01*
X100352380Y-63628571D01*
X100352380Y-63533333D01*
X100400000Y-63390476D01*
X100447619Y-63342857D01*
X100447619Y-62961904D02*
X100400000Y-62914285D01*
X100352380Y-62819047D01*
X100352380Y-62580952D01*
X100400000Y-62485714D01*
X100447619Y-62438095D01*
X100542857Y-62390476D01*
X100638095Y-62390476D01*
X100780952Y-62438095D01*
X101352380Y-63009523D01*
X101352380Y-62390476D01*
X100352380Y-61771428D02*
X100352380Y-61676190D01*
X100400000Y-61580952D01*
X100447619Y-61533333D01*
X100542857Y-61485714D01*
X100733333Y-61438095D01*
X100971428Y-61438095D01*
X101161904Y-61485714D01*
X101257142Y-61533333D01*
X101304761Y-61580952D01*
X101352380Y-61676190D01*
X101352380Y-61771428D01*
X101304761Y-61866666D01*
X101257142Y-61914285D01*
X101161904Y-61961904D01*
X100971428Y-62009523D01*
X100733333Y-62009523D01*
X100542857Y-61961904D01*
X100447619Y-61914285D01*
X100400000Y-61866666D01*
X100352380Y-61771428D01*
%TO.C,C21*%
X103457142Y-65942857D02*
X103504761Y-65990476D01*
X103552380Y-66133333D01*
X103552380Y-66228571D01*
X103504761Y-66371428D01*
X103409523Y-66466666D01*
X103314285Y-66514285D01*
X103123809Y-66561904D01*
X102980952Y-66561904D01*
X102790476Y-66514285D01*
X102695238Y-66466666D01*
X102600000Y-66371428D01*
X102552380Y-66228571D01*
X102552380Y-66133333D01*
X102600000Y-65990476D01*
X102647619Y-65942857D01*
X102647619Y-65561904D02*
X102600000Y-65514285D01*
X102552380Y-65419047D01*
X102552380Y-65180952D01*
X102600000Y-65085714D01*
X102647619Y-65038095D01*
X102742857Y-64990476D01*
X102838095Y-64990476D01*
X102980952Y-65038095D01*
X103552380Y-65609523D01*
X103552380Y-64990476D01*
X103552380Y-64038095D02*
X103552380Y-64609523D01*
X103552380Y-64323809D02*
X102552380Y-64323809D01*
X102695238Y-64419047D01*
X102790476Y-64514285D01*
X102838095Y-64609523D01*
%TO.C,C22*%
X59807142Y-89177142D02*
X59759523Y-89224761D01*
X59616666Y-89272380D01*
X59521428Y-89272380D01*
X59378571Y-89224761D01*
X59283333Y-89129523D01*
X59235714Y-89034285D01*
X59188095Y-88843809D01*
X59188095Y-88700952D01*
X59235714Y-88510476D01*
X59283333Y-88415238D01*
X59378571Y-88320000D01*
X59521428Y-88272380D01*
X59616666Y-88272380D01*
X59759523Y-88320000D01*
X59807142Y-88367619D01*
X60188095Y-88367619D02*
X60235714Y-88320000D01*
X60330952Y-88272380D01*
X60569047Y-88272380D01*
X60664285Y-88320000D01*
X60711904Y-88367619D01*
X60759523Y-88462857D01*
X60759523Y-88558095D01*
X60711904Y-88700952D01*
X60140476Y-89272380D01*
X60759523Y-89272380D01*
X61140476Y-88367619D02*
X61188095Y-88320000D01*
X61283333Y-88272380D01*
X61521428Y-88272380D01*
X61616666Y-88320000D01*
X61664285Y-88367619D01*
X61711904Y-88462857D01*
X61711904Y-88558095D01*
X61664285Y-88700952D01*
X61092857Y-89272380D01*
X61711904Y-89272380D01*
%TO.C,C23*%
X68307142Y-79557142D02*
X68259523Y-79604761D01*
X68116666Y-79652380D01*
X68021428Y-79652380D01*
X67878571Y-79604761D01*
X67783333Y-79509523D01*
X67735714Y-79414285D01*
X67688095Y-79223809D01*
X67688095Y-79080952D01*
X67735714Y-78890476D01*
X67783333Y-78795238D01*
X67878571Y-78700000D01*
X68021428Y-78652380D01*
X68116666Y-78652380D01*
X68259523Y-78700000D01*
X68307142Y-78747619D01*
X68688095Y-78747619D02*
X68735714Y-78700000D01*
X68830952Y-78652380D01*
X69069047Y-78652380D01*
X69164285Y-78700000D01*
X69211904Y-78747619D01*
X69259523Y-78842857D01*
X69259523Y-78938095D01*
X69211904Y-79080952D01*
X68640476Y-79652380D01*
X69259523Y-79652380D01*
X69592857Y-78652380D02*
X70211904Y-78652380D01*
X69878571Y-79033333D01*
X70021428Y-79033333D01*
X70116666Y-79080952D01*
X70164285Y-79128571D01*
X70211904Y-79223809D01*
X70211904Y-79461904D01*
X70164285Y-79557142D01*
X70116666Y-79604761D01*
X70021428Y-79652380D01*
X69735714Y-79652380D01*
X69640476Y-79604761D01*
X69592857Y-79557142D01*
%TO.C,C24*%
X66932142Y-83142857D02*
X66979761Y-83190476D01*
X67027380Y-83333333D01*
X67027380Y-83428571D01*
X66979761Y-83571428D01*
X66884523Y-83666666D01*
X66789285Y-83714285D01*
X66598809Y-83761904D01*
X66455952Y-83761904D01*
X66265476Y-83714285D01*
X66170238Y-83666666D01*
X66075000Y-83571428D01*
X66027380Y-83428571D01*
X66027380Y-83333333D01*
X66075000Y-83190476D01*
X66122619Y-83142857D01*
X66122619Y-82761904D02*
X66075000Y-82714285D01*
X66027380Y-82619047D01*
X66027380Y-82380952D01*
X66075000Y-82285714D01*
X66122619Y-82238095D01*
X66217857Y-82190476D01*
X66313095Y-82190476D01*
X66455952Y-82238095D01*
X67027380Y-82809523D01*
X67027380Y-82190476D01*
X66360714Y-81333333D02*
X67027380Y-81333333D01*
X65979761Y-81571428D02*
X66694047Y-81809523D01*
X66694047Y-81190476D01*
%TO.C,R1*%
X36133333Y-86252380D02*
X35800000Y-85776190D01*
X35561904Y-86252380D02*
X35561904Y-85252380D01*
X35942857Y-85252380D01*
X36038095Y-85300000D01*
X36085714Y-85347619D01*
X36133333Y-85442857D01*
X36133333Y-85585714D01*
X36085714Y-85680952D01*
X36038095Y-85728571D01*
X35942857Y-85776190D01*
X35561904Y-85776190D01*
X37085714Y-86252380D02*
X36514285Y-86252380D01*
X36800000Y-86252380D02*
X36800000Y-85252380D01*
X36704761Y-85395238D01*
X36609523Y-85490476D01*
X36514285Y-85538095D01*
%TO.C,R2*%
X36233333Y-84352380D02*
X35900000Y-83876190D01*
X35661904Y-84352380D02*
X35661904Y-83352380D01*
X36042857Y-83352380D01*
X36138095Y-83400000D01*
X36185714Y-83447619D01*
X36233333Y-83542857D01*
X36233333Y-83685714D01*
X36185714Y-83780952D01*
X36138095Y-83828571D01*
X36042857Y-83876190D01*
X35661904Y-83876190D01*
X36614285Y-83447619D02*
X36661904Y-83400000D01*
X36757142Y-83352380D01*
X36995238Y-83352380D01*
X37090476Y-83400000D01*
X37138095Y-83447619D01*
X37185714Y-83542857D01*
X37185714Y-83638095D01*
X37138095Y-83780952D01*
X36566666Y-84352380D01*
X37185714Y-84352380D01*
%TO.C,R3*%
X35933333Y-87552380D02*
X35600000Y-87076190D01*
X35361904Y-87552380D02*
X35361904Y-86552380D01*
X35742857Y-86552380D01*
X35838095Y-86600000D01*
X35885714Y-86647619D01*
X35933333Y-86742857D01*
X35933333Y-86885714D01*
X35885714Y-86980952D01*
X35838095Y-87028571D01*
X35742857Y-87076190D01*
X35361904Y-87076190D01*
X36266666Y-86552380D02*
X36885714Y-86552380D01*
X36552380Y-86933333D01*
X36695238Y-86933333D01*
X36790476Y-86980952D01*
X36838095Y-87028571D01*
X36885714Y-87123809D01*
X36885714Y-87361904D01*
X36838095Y-87457142D01*
X36790476Y-87504761D01*
X36695238Y-87552380D01*
X36409523Y-87552380D01*
X36314285Y-87504761D01*
X36266666Y-87457142D01*
%TO.C,R4*%
X36033333Y-88752380D02*
X35700000Y-88276190D01*
X35461904Y-88752380D02*
X35461904Y-87752380D01*
X35842857Y-87752380D01*
X35938095Y-87800000D01*
X35985714Y-87847619D01*
X36033333Y-87942857D01*
X36033333Y-88085714D01*
X35985714Y-88180952D01*
X35938095Y-88228571D01*
X35842857Y-88276190D01*
X35461904Y-88276190D01*
X36890476Y-88085714D02*
X36890476Y-88752380D01*
X36652380Y-87704761D02*
X36414285Y-88419047D01*
X37033333Y-88419047D01*
%TO.C,R5*%
X35552380Y-80266666D02*
X35076190Y-80600000D01*
X35552380Y-80838095D02*
X34552380Y-80838095D01*
X34552380Y-80457142D01*
X34600000Y-80361904D01*
X34647619Y-80314285D01*
X34742857Y-80266666D01*
X34885714Y-80266666D01*
X34980952Y-80314285D01*
X35028571Y-80361904D01*
X35076190Y-80457142D01*
X35076190Y-80838095D01*
X34552380Y-79361904D02*
X34552380Y-79838095D01*
X35028571Y-79885714D01*
X34980952Y-79838095D01*
X34933333Y-79742857D01*
X34933333Y-79504761D01*
X34980952Y-79409523D01*
X35028571Y-79361904D01*
X35123809Y-79314285D01*
X35361904Y-79314285D01*
X35457142Y-79361904D01*
X35504761Y-79409523D01*
X35552380Y-79504761D01*
X35552380Y-79742857D01*
X35504761Y-79838095D01*
X35457142Y-79885714D01*
%TO.C,R6*%
X45533333Y-76952380D02*
X45200000Y-76476190D01*
X44961904Y-76952380D02*
X44961904Y-75952380D01*
X45342857Y-75952380D01*
X45438095Y-76000000D01*
X45485714Y-76047619D01*
X45533333Y-76142857D01*
X45533333Y-76285714D01*
X45485714Y-76380952D01*
X45438095Y-76428571D01*
X45342857Y-76476190D01*
X44961904Y-76476190D01*
X46390476Y-75952380D02*
X46200000Y-75952380D01*
X46104761Y-76000000D01*
X46057142Y-76047619D01*
X45961904Y-76190476D01*
X45914285Y-76380952D01*
X45914285Y-76761904D01*
X45961904Y-76857142D01*
X46009523Y-76904761D01*
X46104761Y-76952380D01*
X46295238Y-76952380D01*
X46390476Y-76904761D01*
X46438095Y-76857142D01*
X46485714Y-76761904D01*
X46485714Y-76523809D01*
X46438095Y-76428571D01*
X46390476Y-76380952D01*
X46295238Y-76333333D01*
X46104761Y-76333333D01*
X46009523Y-76380952D01*
X45961904Y-76428571D01*
X45914285Y-76523809D01*
%TO.C,R7*%
X37033333Y-78352380D02*
X36700000Y-77876190D01*
X36461904Y-78352380D02*
X36461904Y-77352380D01*
X36842857Y-77352380D01*
X36938095Y-77400000D01*
X36985714Y-77447619D01*
X37033333Y-77542857D01*
X37033333Y-77685714D01*
X36985714Y-77780952D01*
X36938095Y-77828571D01*
X36842857Y-77876190D01*
X36461904Y-77876190D01*
X37366666Y-77352380D02*
X38033333Y-77352380D01*
X37604761Y-78352380D01*
%TO.C,R8*%
X42652380Y-92966666D02*
X42176190Y-93300000D01*
X42652380Y-93538095D02*
X41652380Y-93538095D01*
X41652380Y-93157142D01*
X41700000Y-93061904D01*
X41747619Y-93014285D01*
X41842857Y-92966666D01*
X41985714Y-92966666D01*
X42080952Y-93014285D01*
X42128571Y-93061904D01*
X42176190Y-93157142D01*
X42176190Y-93538095D01*
X42080952Y-92395238D02*
X42033333Y-92490476D01*
X41985714Y-92538095D01*
X41890476Y-92585714D01*
X41842857Y-92585714D01*
X41747619Y-92538095D01*
X41700000Y-92490476D01*
X41652380Y-92395238D01*
X41652380Y-92204761D01*
X41700000Y-92109523D01*
X41747619Y-92061904D01*
X41842857Y-92014285D01*
X41890476Y-92014285D01*
X41985714Y-92061904D01*
X42033333Y-92109523D01*
X42080952Y-92204761D01*
X42080952Y-92395238D01*
X42128571Y-92490476D01*
X42176190Y-92538095D01*
X42271428Y-92585714D01*
X42461904Y-92585714D01*
X42557142Y-92538095D01*
X42604761Y-92490476D01*
X42652380Y-92395238D01*
X42652380Y-92204761D01*
X42604761Y-92109523D01*
X42557142Y-92061904D01*
X42461904Y-92014285D01*
X42271428Y-92014285D01*
X42176190Y-92061904D01*
X42128571Y-92109523D01*
X42080952Y-92204761D01*
%TO.C,R9*%
X41452380Y-92966666D02*
X40976190Y-93300000D01*
X41452380Y-93538095D02*
X40452380Y-93538095D01*
X40452380Y-93157142D01*
X40500000Y-93061904D01*
X40547619Y-93014285D01*
X40642857Y-92966666D01*
X40785714Y-92966666D01*
X40880952Y-93014285D01*
X40928571Y-93061904D01*
X40976190Y-93157142D01*
X40976190Y-93538095D01*
X41452380Y-92490476D02*
X41452380Y-92300000D01*
X41404761Y-92204761D01*
X41357142Y-92157142D01*
X41214285Y-92061904D01*
X41023809Y-92014285D01*
X40642857Y-92014285D01*
X40547619Y-92061904D01*
X40500000Y-92109523D01*
X40452380Y-92204761D01*
X40452380Y-92395238D01*
X40500000Y-92490476D01*
X40547619Y-92538095D01*
X40642857Y-92585714D01*
X40880952Y-92585714D01*
X40976190Y-92538095D01*
X41023809Y-92490476D01*
X41071428Y-92395238D01*
X41071428Y-92204761D01*
X41023809Y-92109523D01*
X40976190Y-92061904D01*
X40880952Y-92014285D01*
%TO.C,R10*%
X46352380Y-93742857D02*
X45876190Y-94076190D01*
X46352380Y-94314285D02*
X45352380Y-94314285D01*
X45352380Y-93933333D01*
X45400000Y-93838095D01*
X45447619Y-93790476D01*
X45542857Y-93742857D01*
X45685714Y-93742857D01*
X45780952Y-93790476D01*
X45828571Y-93838095D01*
X45876190Y-93933333D01*
X45876190Y-94314285D01*
X46352380Y-92790476D02*
X46352380Y-93361904D01*
X46352380Y-93076190D02*
X45352380Y-93076190D01*
X45495238Y-93171428D01*
X45590476Y-93266666D01*
X45638095Y-93361904D01*
X45352380Y-92171428D02*
X45352380Y-92076190D01*
X45400000Y-91980952D01*
X45447619Y-91933333D01*
X45542857Y-91885714D01*
X45733333Y-91838095D01*
X45971428Y-91838095D01*
X46161904Y-91885714D01*
X46257142Y-91933333D01*
X46304761Y-91980952D01*
X46352380Y-92076190D01*
X46352380Y-92171428D01*
X46304761Y-92266666D01*
X46257142Y-92314285D01*
X46161904Y-92361904D01*
X45971428Y-92409523D01*
X45733333Y-92409523D01*
X45542857Y-92361904D01*
X45447619Y-92314285D01*
X45400000Y-92266666D01*
X45352380Y-92171428D01*
%TO.C,R11*%
X45052380Y-93842857D02*
X44576190Y-94176190D01*
X45052380Y-94414285D02*
X44052380Y-94414285D01*
X44052380Y-94033333D01*
X44100000Y-93938095D01*
X44147619Y-93890476D01*
X44242857Y-93842857D01*
X44385714Y-93842857D01*
X44480952Y-93890476D01*
X44528571Y-93938095D01*
X44576190Y-94033333D01*
X44576190Y-94414285D01*
X45052380Y-92890476D02*
X45052380Y-93461904D01*
X45052380Y-93176190D02*
X44052380Y-93176190D01*
X44195238Y-93271428D01*
X44290476Y-93366666D01*
X44338095Y-93461904D01*
X45052380Y-91938095D02*
X45052380Y-92509523D01*
X45052380Y-92223809D02*
X44052380Y-92223809D01*
X44195238Y-92319047D01*
X44290476Y-92414285D01*
X44338095Y-92509523D01*
%TO.C,R12*%
X47957142Y-83652380D02*
X47623809Y-83176190D01*
X47385714Y-83652380D02*
X47385714Y-82652380D01*
X47766666Y-82652380D01*
X47861904Y-82700000D01*
X47909523Y-82747619D01*
X47957142Y-82842857D01*
X47957142Y-82985714D01*
X47909523Y-83080952D01*
X47861904Y-83128571D01*
X47766666Y-83176190D01*
X47385714Y-83176190D01*
X48909523Y-83652380D02*
X48338095Y-83652380D01*
X48623809Y-83652380D02*
X48623809Y-82652380D01*
X48528571Y-82795238D01*
X48433333Y-82890476D01*
X48338095Y-82938095D01*
X49290476Y-82747619D02*
X49338095Y-82700000D01*
X49433333Y-82652380D01*
X49671428Y-82652380D01*
X49766666Y-82700000D01*
X49814285Y-82747619D01*
X49861904Y-82842857D01*
X49861904Y-82938095D01*
X49814285Y-83080952D01*
X49242857Y-83652380D01*
X49861904Y-83652380D01*
%TO.C,R13*%
X48259642Y-86872380D02*
X47926309Y-86396190D01*
X47688214Y-86872380D02*
X47688214Y-85872380D01*
X48069166Y-85872380D01*
X48164404Y-85920000D01*
X48212023Y-85967619D01*
X48259642Y-86062857D01*
X48259642Y-86205714D01*
X48212023Y-86300952D01*
X48164404Y-86348571D01*
X48069166Y-86396190D01*
X47688214Y-86396190D01*
X49212023Y-86872380D02*
X48640595Y-86872380D01*
X48926309Y-86872380D02*
X48926309Y-85872380D01*
X48831071Y-86015238D01*
X48735833Y-86110476D01*
X48640595Y-86158095D01*
X49545357Y-85872380D02*
X50164404Y-85872380D01*
X49831071Y-86253333D01*
X49973928Y-86253333D01*
X50069166Y-86300952D01*
X50116785Y-86348571D01*
X50164404Y-86443809D01*
X50164404Y-86681904D01*
X50116785Y-86777142D01*
X50069166Y-86824761D01*
X49973928Y-86872380D01*
X49688214Y-86872380D01*
X49592976Y-86824761D01*
X49545357Y-86777142D01*
%TO.C,R14*%
X38772380Y-91555357D02*
X38296190Y-91888690D01*
X38772380Y-92126785D02*
X37772380Y-92126785D01*
X37772380Y-91745833D01*
X37820000Y-91650595D01*
X37867619Y-91602976D01*
X37962857Y-91555357D01*
X38105714Y-91555357D01*
X38200952Y-91602976D01*
X38248571Y-91650595D01*
X38296190Y-91745833D01*
X38296190Y-92126785D01*
X38772380Y-90602976D02*
X38772380Y-91174404D01*
X38772380Y-90888690D02*
X37772380Y-90888690D01*
X37915238Y-90983928D01*
X38010476Y-91079166D01*
X38058095Y-91174404D01*
X38105714Y-89745833D02*
X38772380Y-89745833D01*
X37724761Y-89983928D02*
X38439047Y-90222023D01*
X38439047Y-89602976D01*
%TO.C,R15*%
X43852380Y-94392857D02*
X43376190Y-94726190D01*
X43852380Y-94964285D02*
X42852380Y-94964285D01*
X42852380Y-94583333D01*
X42900000Y-94488095D01*
X42947619Y-94440476D01*
X43042857Y-94392857D01*
X43185714Y-94392857D01*
X43280952Y-94440476D01*
X43328571Y-94488095D01*
X43376190Y-94583333D01*
X43376190Y-94964285D01*
X43852380Y-93440476D02*
X43852380Y-94011904D01*
X43852380Y-93726190D02*
X42852380Y-93726190D01*
X42995238Y-93821428D01*
X43090476Y-93916666D01*
X43138095Y-94011904D01*
X42852380Y-92535714D02*
X42852380Y-93011904D01*
X43328571Y-93059523D01*
X43280952Y-93011904D01*
X43233333Y-92916666D01*
X43233333Y-92678571D01*
X43280952Y-92583333D01*
X43328571Y-92535714D01*
X43423809Y-92488095D01*
X43661904Y-92488095D01*
X43757142Y-92535714D01*
X43804761Y-92583333D01*
X43852380Y-92678571D01*
X43852380Y-92916666D01*
X43804761Y-93011904D01*
X43757142Y-93059523D01*
%TO.C,R16*%
X48852380Y-90555357D02*
X48376190Y-90888690D01*
X48852380Y-91126785D02*
X47852380Y-91126785D01*
X47852380Y-90745833D01*
X47900000Y-90650595D01*
X47947619Y-90602976D01*
X48042857Y-90555357D01*
X48185714Y-90555357D01*
X48280952Y-90602976D01*
X48328571Y-90650595D01*
X48376190Y-90745833D01*
X48376190Y-91126785D01*
X48852380Y-89602976D02*
X48852380Y-90174404D01*
X48852380Y-89888690D02*
X47852380Y-89888690D01*
X47995238Y-89983928D01*
X48090476Y-90079166D01*
X48138095Y-90174404D01*
X47852380Y-88745833D02*
X47852380Y-88936309D01*
X47900000Y-89031547D01*
X47947619Y-89079166D01*
X48090476Y-89174404D01*
X48280952Y-89222023D01*
X48661904Y-89222023D01*
X48757142Y-89174404D01*
X48804761Y-89126785D01*
X48852380Y-89031547D01*
X48852380Y-88841071D01*
X48804761Y-88745833D01*
X48757142Y-88698214D01*
X48661904Y-88650595D01*
X48423809Y-88650595D01*
X48328571Y-88698214D01*
X48280952Y-88745833D01*
X48233333Y-88841071D01*
X48233333Y-89031547D01*
X48280952Y-89126785D01*
X48328571Y-89174404D01*
X48423809Y-89222023D01*
%TO.C,R17*%
X37157142Y-94352380D02*
X36823809Y-93876190D01*
X36585714Y-94352380D02*
X36585714Y-93352380D01*
X36966666Y-93352380D01*
X37061904Y-93400000D01*
X37109523Y-93447619D01*
X37157142Y-93542857D01*
X37157142Y-93685714D01*
X37109523Y-93780952D01*
X37061904Y-93828571D01*
X36966666Y-93876190D01*
X36585714Y-93876190D01*
X38109523Y-94352380D02*
X37538095Y-94352380D01*
X37823809Y-94352380D02*
X37823809Y-93352380D01*
X37728571Y-93495238D01*
X37633333Y-93590476D01*
X37538095Y-93638095D01*
X38442857Y-93352380D02*
X39109523Y-93352380D01*
X38680952Y-94352380D01*
%TO.C,R18*%
X35457142Y-91252380D02*
X35123809Y-90776190D01*
X34885714Y-91252380D02*
X34885714Y-90252380D01*
X35266666Y-90252380D01*
X35361904Y-90300000D01*
X35409523Y-90347619D01*
X35457142Y-90442857D01*
X35457142Y-90585714D01*
X35409523Y-90680952D01*
X35361904Y-90728571D01*
X35266666Y-90776190D01*
X34885714Y-90776190D01*
X36409523Y-91252380D02*
X35838095Y-91252380D01*
X36123809Y-91252380D02*
X36123809Y-90252380D01*
X36028571Y-90395238D01*
X35933333Y-90490476D01*
X35838095Y-90538095D01*
X36980952Y-90680952D02*
X36885714Y-90633333D01*
X36838095Y-90585714D01*
X36790476Y-90490476D01*
X36790476Y-90442857D01*
X36838095Y-90347619D01*
X36885714Y-90300000D01*
X36980952Y-90252380D01*
X37171428Y-90252380D01*
X37266666Y-90300000D01*
X37314285Y-90347619D01*
X37361904Y-90442857D01*
X37361904Y-90490476D01*
X37314285Y-90585714D01*
X37266666Y-90633333D01*
X37171428Y-90680952D01*
X36980952Y-90680952D01*
X36885714Y-90728571D01*
X36838095Y-90776190D01*
X36790476Y-90871428D01*
X36790476Y-91061904D01*
X36838095Y-91157142D01*
X36885714Y-91204761D01*
X36980952Y-91252380D01*
X37171428Y-91252380D01*
X37266666Y-91204761D01*
X37314285Y-91157142D01*
X37361904Y-91061904D01*
X37361904Y-90871428D01*
X37314285Y-90776190D01*
X37266666Y-90728571D01*
X37171428Y-90680952D01*
%TO.C,R19*%
X35927142Y-90039880D02*
X35593809Y-89563690D01*
X35355714Y-90039880D02*
X35355714Y-89039880D01*
X35736666Y-89039880D01*
X35831904Y-89087500D01*
X35879523Y-89135119D01*
X35927142Y-89230357D01*
X35927142Y-89373214D01*
X35879523Y-89468452D01*
X35831904Y-89516071D01*
X35736666Y-89563690D01*
X35355714Y-89563690D01*
X36879523Y-90039880D02*
X36308095Y-90039880D01*
X36593809Y-90039880D02*
X36593809Y-89039880D01*
X36498571Y-89182738D01*
X36403333Y-89277976D01*
X36308095Y-89325595D01*
X37355714Y-90039880D02*
X37546190Y-90039880D01*
X37641428Y-89992261D01*
X37689047Y-89944642D01*
X37784285Y-89801785D01*
X37831904Y-89611309D01*
X37831904Y-89230357D01*
X37784285Y-89135119D01*
X37736666Y-89087500D01*
X37641428Y-89039880D01*
X37450952Y-89039880D01*
X37355714Y-89087500D01*
X37308095Y-89135119D01*
X37260476Y-89230357D01*
X37260476Y-89468452D01*
X37308095Y-89563690D01*
X37355714Y-89611309D01*
X37450952Y-89658928D01*
X37641428Y-89658928D01*
X37736666Y-89611309D01*
X37784285Y-89563690D01*
X37831904Y-89468452D01*
%TO.C,R20*%
X29757142Y-94052380D02*
X29423809Y-93576190D01*
X29185714Y-94052380D02*
X29185714Y-93052380D01*
X29566666Y-93052380D01*
X29661904Y-93100000D01*
X29709523Y-93147619D01*
X29757142Y-93242857D01*
X29757142Y-93385714D01*
X29709523Y-93480952D01*
X29661904Y-93528571D01*
X29566666Y-93576190D01*
X29185714Y-93576190D01*
X30138095Y-93147619D02*
X30185714Y-93100000D01*
X30280952Y-93052380D01*
X30519047Y-93052380D01*
X30614285Y-93100000D01*
X30661904Y-93147619D01*
X30709523Y-93242857D01*
X30709523Y-93338095D01*
X30661904Y-93480952D01*
X30090476Y-94052380D01*
X30709523Y-94052380D01*
X31328571Y-93052380D02*
X31423809Y-93052380D01*
X31519047Y-93100000D01*
X31566666Y-93147619D01*
X31614285Y-93242857D01*
X31661904Y-93433333D01*
X31661904Y-93671428D01*
X31614285Y-93861904D01*
X31566666Y-93957142D01*
X31519047Y-94004761D01*
X31423809Y-94052380D01*
X31328571Y-94052380D01*
X31233333Y-94004761D01*
X31185714Y-93957142D01*
X31138095Y-93861904D01*
X31090476Y-93671428D01*
X31090476Y-93433333D01*
X31138095Y-93242857D01*
X31185714Y-93147619D01*
X31233333Y-93100000D01*
X31328571Y-93052380D01*
%TO.C,R21*%
X60152380Y-85442857D02*
X59676190Y-85776190D01*
X60152380Y-86014285D02*
X59152380Y-86014285D01*
X59152380Y-85633333D01*
X59200000Y-85538095D01*
X59247619Y-85490476D01*
X59342857Y-85442857D01*
X59485714Y-85442857D01*
X59580952Y-85490476D01*
X59628571Y-85538095D01*
X59676190Y-85633333D01*
X59676190Y-86014285D01*
X59247619Y-85061904D02*
X59200000Y-85014285D01*
X59152380Y-84919047D01*
X59152380Y-84680952D01*
X59200000Y-84585714D01*
X59247619Y-84538095D01*
X59342857Y-84490476D01*
X59438095Y-84490476D01*
X59580952Y-84538095D01*
X60152380Y-85109523D01*
X60152380Y-84490476D01*
X60152380Y-83538095D02*
X60152380Y-84109523D01*
X60152380Y-83823809D02*
X59152380Y-83823809D01*
X59295238Y-83919047D01*
X59390476Y-84014285D01*
X59438095Y-84109523D01*
%TO.C,R22*%
X61052380Y-90942857D02*
X60576190Y-91276190D01*
X61052380Y-91514285D02*
X60052380Y-91514285D01*
X60052380Y-91133333D01*
X60100000Y-91038095D01*
X60147619Y-90990476D01*
X60242857Y-90942857D01*
X60385714Y-90942857D01*
X60480952Y-90990476D01*
X60528571Y-91038095D01*
X60576190Y-91133333D01*
X60576190Y-91514285D01*
X60147619Y-90561904D02*
X60100000Y-90514285D01*
X60052380Y-90419047D01*
X60052380Y-90180952D01*
X60100000Y-90085714D01*
X60147619Y-90038095D01*
X60242857Y-89990476D01*
X60338095Y-89990476D01*
X60480952Y-90038095D01*
X61052380Y-90609523D01*
X61052380Y-89990476D01*
X60147619Y-89609523D02*
X60100000Y-89561904D01*
X60052380Y-89466666D01*
X60052380Y-89228571D01*
X60100000Y-89133333D01*
X60147619Y-89085714D01*
X60242857Y-89038095D01*
X60338095Y-89038095D01*
X60480952Y-89085714D01*
X61052380Y-89657142D01*
X61052380Y-89038095D01*
%TO.C,R23*%
X59452380Y-90842857D02*
X58976190Y-91176190D01*
X59452380Y-91414285D02*
X58452380Y-91414285D01*
X58452380Y-91033333D01*
X58500000Y-90938095D01*
X58547619Y-90890476D01*
X58642857Y-90842857D01*
X58785714Y-90842857D01*
X58880952Y-90890476D01*
X58928571Y-90938095D01*
X58976190Y-91033333D01*
X58976190Y-91414285D01*
X58547619Y-90461904D02*
X58500000Y-90414285D01*
X58452380Y-90319047D01*
X58452380Y-90080952D01*
X58500000Y-89985714D01*
X58547619Y-89938095D01*
X58642857Y-89890476D01*
X58738095Y-89890476D01*
X58880952Y-89938095D01*
X59452380Y-90509523D01*
X59452380Y-89890476D01*
X58452380Y-89557142D02*
X58452380Y-88938095D01*
X58833333Y-89271428D01*
X58833333Y-89128571D01*
X58880952Y-89033333D01*
X58928571Y-88985714D01*
X59023809Y-88938095D01*
X59261904Y-88938095D01*
X59357142Y-88985714D01*
X59404761Y-89033333D01*
X59452380Y-89128571D01*
X59452380Y-89414285D01*
X59404761Y-89509523D01*
X59357142Y-89557142D01*
%TO.C,R32*%
X50452380Y-79342857D02*
X49976190Y-79676190D01*
X50452380Y-79914285D02*
X49452380Y-79914285D01*
X49452380Y-79533333D01*
X49500000Y-79438095D01*
X49547619Y-79390476D01*
X49642857Y-79342857D01*
X49785714Y-79342857D01*
X49880952Y-79390476D01*
X49928571Y-79438095D01*
X49976190Y-79533333D01*
X49976190Y-79914285D01*
X49452380Y-79009523D02*
X49452380Y-78390476D01*
X49833333Y-78723809D01*
X49833333Y-78580952D01*
X49880952Y-78485714D01*
X49928571Y-78438095D01*
X50023809Y-78390476D01*
X50261904Y-78390476D01*
X50357142Y-78438095D01*
X50404761Y-78485714D01*
X50452380Y-78580952D01*
X50452380Y-78866666D01*
X50404761Y-78961904D01*
X50357142Y-79009523D01*
X49547619Y-78009523D02*
X49500000Y-77961904D01*
X49452380Y-77866666D01*
X49452380Y-77628571D01*
X49500000Y-77533333D01*
X49547619Y-77485714D01*
X49642857Y-77438095D01*
X49738095Y-77438095D01*
X49880952Y-77485714D01*
X50452380Y-78057142D01*
X50452380Y-77438095D01*
%TO.C,R33*%
X50452380Y-82042857D02*
X49976190Y-82376190D01*
X50452380Y-82614285D02*
X49452380Y-82614285D01*
X49452380Y-82233333D01*
X49500000Y-82138095D01*
X49547619Y-82090476D01*
X49642857Y-82042857D01*
X49785714Y-82042857D01*
X49880952Y-82090476D01*
X49928571Y-82138095D01*
X49976190Y-82233333D01*
X49976190Y-82614285D01*
X49452380Y-81709523D02*
X49452380Y-81090476D01*
X49833333Y-81423809D01*
X49833333Y-81280952D01*
X49880952Y-81185714D01*
X49928571Y-81138095D01*
X50023809Y-81090476D01*
X50261904Y-81090476D01*
X50357142Y-81138095D01*
X50404761Y-81185714D01*
X50452380Y-81280952D01*
X50452380Y-81566666D01*
X50404761Y-81661904D01*
X50357142Y-81709523D01*
X49452380Y-80757142D02*
X49452380Y-80138095D01*
X49833333Y-80471428D01*
X49833333Y-80328571D01*
X49880952Y-80233333D01*
X49928571Y-80185714D01*
X50023809Y-80138095D01*
X50261904Y-80138095D01*
X50357142Y-80185714D01*
X50404761Y-80233333D01*
X50452380Y-80328571D01*
X50452380Y-80614285D01*
X50404761Y-80709523D01*
X50357142Y-80757142D01*
%TO.C,R34*%
X48357142Y-77352380D02*
X48023809Y-76876190D01*
X47785714Y-77352380D02*
X47785714Y-76352380D01*
X48166666Y-76352380D01*
X48261904Y-76400000D01*
X48309523Y-76447619D01*
X48357142Y-76542857D01*
X48357142Y-76685714D01*
X48309523Y-76780952D01*
X48261904Y-76828571D01*
X48166666Y-76876190D01*
X47785714Y-76876190D01*
X48690476Y-76352380D02*
X49309523Y-76352380D01*
X48976190Y-76733333D01*
X49119047Y-76733333D01*
X49214285Y-76780952D01*
X49261904Y-76828571D01*
X49309523Y-76923809D01*
X49309523Y-77161904D01*
X49261904Y-77257142D01*
X49214285Y-77304761D01*
X49119047Y-77352380D01*
X48833333Y-77352380D01*
X48738095Y-77304761D01*
X48690476Y-77257142D01*
X50166666Y-76685714D02*
X50166666Y-77352380D01*
X49928571Y-76304761D02*
X49690476Y-77019047D01*
X50309523Y-77019047D01*
%TO.C,R35*%
X55957142Y-92452380D02*
X55623809Y-91976190D01*
X55385714Y-92452380D02*
X55385714Y-91452380D01*
X55766666Y-91452380D01*
X55861904Y-91500000D01*
X55909523Y-91547619D01*
X55957142Y-91642857D01*
X55957142Y-91785714D01*
X55909523Y-91880952D01*
X55861904Y-91928571D01*
X55766666Y-91976190D01*
X55385714Y-91976190D01*
X56290476Y-91452380D02*
X56909523Y-91452380D01*
X56576190Y-91833333D01*
X56719047Y-91833333D01*
X56814285Y-91880952D01*
X56861904Y-91928571D01*
X56909523Y-92023809D01*
X56909523Y-92261904D01*
X56861904Y-92357142D01*
X56814285Y-92404761D01*
X56719047Y-92452380D01*
X56433333Y-92452380D01*
X56338095Y-92404761D01*
X56290476Y-92357142D01*
X57814285Y-91452380D02*
X57338095Y-91452380D01*
X57290476Y-91928571D01*
X57338095Y-91880952D01*
X57433333Y-91833333D01*
X57671428Y-91833333D01*
X57766666Y-91880952D01*
X57814285Y-91928571D01*
X57861904Y-92023809D01*
X57861904Y-92261904D01*
X57814285Y-92357142D01*
X57766666Y-92404761D01*
X57671428Y-92452380D01*
X57433333Y-92452380D01*
X57338095Y-92404761D01*
X57290476Y-92357142D01*
%TO.C,R36*%
X55557142Y-93852380D02*
X55223809Y-93376190D01*
X54985714Y-93852380D02*
X54985714Y-92852380D01*
X55366666Y-92852380D01*
X55461904Y-92900000D01*
X55509523Y-92947619D01*
X55557142Y-93042857D01*
X55557142Y-93185714D01*
X55509523Y-93280952D01*
X55461904Y-93328571D01*
X55366666Y-93376190D01*
X54985714Y-93376190D01*
X55890476Y-92852380D02*
X56509523Y-92852380D01*
X56176190Y-93233333D01*
X56319047Y-93233333D01*
X56414285Y-93280952D01*
X56461904Y-93328571D01*
X56509523Y-93423809D01*
X56509523Y-93661904D01*
X56461904Y-93757142D01*
X56414285Y-93804761D01*
X56319047Y-93852380D01*
X56033333Y-93852380D01*
X55938095Y-93804761D01*
X55890476Y-93757142D01*
X57366666Y-92852380D02*
X57176190Y-92852380D01*
X57080952Y-92900000D01*
X57033333Y-92947619D01*
X56938095Y-93090476D01*
X56890476Y-93280952D01*
X56890476Y-93661904D01*
X56938095Y-93757142D01*
X56985714Y-93804761D01*
X57080952Y-93852380D01*
X57271428Y-93852380D01*
X57366666Y-93804761D01*
X57414285Y-93757142D01*
X57461904Y-93661904D01*
X57461904Y-93423809D01*
X57414285Y-93328571D01*
X57366666Y-93280952D01*
X57271428Y-93233333D01*
X57080952Y-93233333D01*
X56985714Y-93280952D01*
X56938095Y-93328571D01*
X56890476Y-93423809D01*
%TO.C,R37*%
X68833216Y-92213808D02*
X68499883Y-91737618D01*
X68261788Y-92213808D02*
X68261788Y-91213808D01*
X68642740Y-91213808D01*
X68737978Y-91261428D01*
X68785597Y-91309047D01*
X68833216Y-91404285D01*
X68833216Y-91547142D01*
X68785597Y-91642380D01*
X68737978Y-91689999D01*
X68642740Y-91737618D01*
X68261788Y-91737618D01*
X69166550Y-91213808D02*
X69785597Y-91213808D01*
X69452264Y-91594761D01*
X69595121Y-91594761D01*
X69690359Y-91642380D01*
X69737978Y-91689999D01*
X69785597Y-91785237D01*
X69785597Y-92023332D01*
X69737978Y-92118570D01*
X69690359Y-92166189D01*
X69595121Y-92213808D01*
X69309407Y-92213808D01*
X69214169Y-92166189D01*
X69166550Y-92118570D01*
X70118931Y-91213808D02*
X70785597Y-91213808D01*
X70357026Y-92213808D01*
%TO.C,R38*%
X84552380Y-86248570D02*
X84076190Y-86581903D01*
X84552380Y-86819998D02*
X83552380Y-86819998D01*
X83552380Y-86439046D01*
X83600000Y-86343808D01*
X83647619Y-86296189D01*
X83742857Y-86248570D01*
X83885714Y-86248570D01*
X83980952Y-86296189D01*
X84028571Y-86343808D01*
X84076190Y-86439046D01*
X84076190Y-86819998D01*
X83552380Y-85915236D02*
X83552380Y-85296189D01*
X83933333Y-85629522D01*
X83933333Y-85486665D01*
X83980952Y-85391427D01*
X84028571Y-85343808D01*
X84123809Y-85296189D01*
X84361904Y-85296189D01*
X84457142Y-85343808D01*
X84504761Y-85391427D01*
X84552380Y-85486665D01*
X84552380Y-85772379D01*
X84504761Y-85867617D01*
X84457142Y-85915236D01*
X83980952Y-84724760D02*
X83933333Y-84819998D01*
X83885714Y-84867617D01*
X83790476Y-84915236D01*
X83742857Y-84915236D01*
X83647619Y-84867617D01*
X83600000Y-84819998D01*
X83552380Y-84724760D01*
X83552380Y-84534284D01*
X83600000Y-84439046D01*
X83647619Y-84391427D01*
X83742857Y-84343808D01*
X83790476Y-84343808D01*
X83885714Y-84391427D01*
X83933333Y-84439046D01*
X83980952Y-84534284D01*
X83980952Y-84724760D01*
X84028571Y-84819998D01*
X84076190Y-84867617D01*
X84171428Y-84915236D01*
X84361904Y-84915236D01*
X84457142Y-84867617D01*
X84504761Y-84819998D01*
X84552380Y-84724760D01*
X84552380Y-84534284D01*
X84504761Y-84439046D01*
X84457142Y-84391427D01*
X84361904Y-84343808D01*
X84171428Y-84343808D01*
X84076190Y-84391427D01*
X84028571Y-84439046D01*
X83980952Y-84534284D01*
%TO.C,TP1*%
X17738095Y-78452380D02*
X18309523Y-78452380D01*
X18023809Y-79452380D02*
X18023809Y-78452380D01*
X18642857Y-79452380D02*
X18642857Y-78452380D01*
X19023809Y-78452380D01*
X19119047Y-78500000D01*
X19166666Y-78547619D01*
X19214285Y-78642857D01*
X19214285Y-78785714D01*
X19166666Y-78880952D01*
X19119047Y-78928571D01*
X19023809Y-78976190D01*
X18642857Y-78976190D01*
X20166666Y-79452380D02*
X19595238Y-79452380D01*
X19880952Y-79452380D02*
X19880952Y-78452380D01*
X19785714Y-78595238D01*
X19690476Y-78690476D01*
X19595238Y-78738095D01*
%TO.C,TP2*%
X13938095Y-89852380D02*
X14509523Y-89852380D01*
X14223809Y-90852380D02*
X14223809Y-89852380D01*
X14842857Y-90852380D02*
X14842857Y-89852380D01*
X15223809Y-89852380D01*
X15319047Y-89900000D01*
X15366666Y-89947619D01*
X15414285Y-90042857D01*
X15414285Y-90185714D01*
X15366666Y-90280952D01*
X15319047Y-90328571D01*
X15223809Y-90376190D01*
X14842857Y-90376190D01*
X15795238Y-89947619D02*
X15842857Y-89900000D01*
X15938095Y-89852380D01*
X16176190Y-89852380D01*
X16271428Y-89900000D01*
X16319047Y-89947619D01*
X16366666Y-90042857D01*
X16366666Y-90138095D01*
X16319047Y-90280952D01*
X15747619Y-90852380D01*
X16366666Y-90852380D01*
%TO.C,TP3*%
X17338095Y-85252380D02*
X17909523Y-85252380D01*
X17623809Y-86252380D02*
X17623809Y-85252380D01*
X18242857Y-86252380D02*
X18242857Y-85252380D01*
X18623809Y-85252380D01*
X18719047Y-85300000D01*
X18766666Y-85347619D01*
X18814285Y-85442857D01*
X18814285Y-85585714D01*
X18766666Y-85680952D01*
X18719047Y-85728571D01*
X18623809Y-85776190D01*
X18242857Y-85776190D01*
X19147619Y-85252380D02*
X19766666Y-85252380D01*
X19433333Y-85633333D01*
X19576190Y-85633333D01*
X19671428Y-85680952D01*
X19719047Y-85728571D01*
X19766666Y-85823809D01*
X19766666Y-86061904D01*
X19719047Y-86157142D01*
X19671428Y-86204761D01*
X19576190Y-86252380D01*
X19290476Y-86252380D01*
X19195238Y-86204761D01*
X19147619Y-86157142D01*
%TO.C,TP4*%
X15938095Y-82852380D02*
X16509523Y-82852380D01*
X16223809Y-83852380D02*
X16223809Y-82852380D01*
X16842857Y-83852380D02*
X16842857Y-82852380D01*
X17223809Y-82852380D01*
X17319047Y-82900000D01*
X17366666Y-82947619D01*
X17414285Y-83042857D01*
X17414285Y-83185714D01*
X17366666Y-83280952D01*
X17319047Y-83328571D01*
X17223809Y-83376190D01*
X16842857Y-83376190D01*
X18271428Y-83185714D02*
X18271428Y-83852380D01*
X18033333Y-82804761D02*
X17795238Y-83519047D01*
X18414285Y-83519047D01*
%TO.C,TP5*%
X59112380Y-69161904D02*
X59112380Y-68590476D01*
X60112380Y-68876190D02*
X59112380Y-68876190D01*
X60112380Y-68257142D02*
X59112380Y-68257142D01*
X59112380Y-67876190D01*
X59160000Y-67780952D01*
X59207619Y-67733333D01*
X59302857Y-67685714D01*
X59445714Y-67685714D01*
X59540952Y-67733333D01*
X59588571Y-67780952D01*
X59636190Y-67876190D01*
X59636190Y-68257142D01*
X59112380Y-66780952D02*
X59112380Y-67257142D01*
X59588571Y-67304761D01*
X59540952Y-67257142D01*
X59493333Y-67161904D01*
X59493333Y-66923809D01*
X59540952Y-66828571D01*
X59588571Y-66780952D01*
X59683809Y-66733333D01*
X59921904Y-66733333D01*
X60017142Y-66780952D01*
X60064761Y-66828571D01*
X60112380Y-66923809D01*
X60112380Y-67161904D01*
X60064761Y-67257142D01*
X60017142Y-67304761D01*
%TO.C,TP6*%
X57512380Y-69561904D02*
X57512380Y-68990476D01*
X58512380Y-69276190D02*
X57512380Y-69276190D01*
X58512380Y-68657142D02*
X57512380Y-68657142D01*
X57512380Y-68276190D01*
X57560000Y-68180952D01*
X57607619Y-68133333D01*
X57702857Y-68085714D01*
X57845714Y-68085714D01*
X57940952Y-68133333D01*
X57988571Y-68180952D01*
X58036190Y-68276190D01*
X58036190Y-68657142D01*
X57512380Y-67228571D02*
X57512380Y-67419047D01*
X57560000Y-67514285D01*
X57607619Y-67561904D01*
X57750476Y-67657142D01*
X57940952Y-67704761D01*
X58321904Y-67704761D01*
X58417142Y-67657142D01*
X58464761Y-67609523D01*
X58512380Y-67514285D01*
X58512380Y-67323809D01*
X58464761Y-67228571D01*
X58417142Y-67180952D01*
X58321904Y-67133333D01*
X58083809Y-67133333D01*
X57988571Y-67180952D01*
X57940952Y-67228571D01*
X57893333Y-67323809D01*
X57893333Y-67514285D01*
X57940952Y-67609523D01*
X57988571Y-67657142D01*
X58083809Y-67704761D01*
%TO.C,TP7*%
X55332380Y-69561904D02*
X55332380Y-68990476D01*
X56332380Y-69276190D02*
X55332380Y-69276190D01*
X56332380Y-68657142D02*
X55332380Y-68657142D01*
X55332380Y-68276190D01*
X55380000Y-68180952D01*
X55427619Y-68133333D01*
X55522857Y-68085714D01*
X55665714Y-68085714D01*
X55760952Y-68133333D01*
X55808571Y-68180952D01*
X55856190Y-68276190D01*
X55856190Y-68657142D01*
X55332380Y-67752380D02*
X55332380Y-67085714D01*
X56332380Y-67514285D01*
%TO.C,TP8*%
X60712380Y-68161904D02*
X60712380Y-67590476D01*
X61712380Y-67876190D02*
X60712380Y-67876190D01*
X61712380Y-67257142D02*
X60712380Y-67257142D01*
X60712380Y-66876190D01*
X60760000Y-66780952D01*
X60807619Y-66733333D01*
X60902857Y-66685714D01*
X61045714Y-66685714D01*
X61140952Y-66733333D01*
X61188571Y-66780952D01*
X61236190Y-66876190D01*
X61236190Y-67257142D01*
X61140952Y-66114285D02*
X61093333Y-66209523D01*
X61045714Y-66257142D01*
X60950476Y-66304761D01*
X60902857Y-66304761D01*
X60807619Y-66257142D01*
X60760000Y-66209523D01*
X60712380Y-66114285D01*
X60712380Y-65923809D01*
X60760000Y-65828571D01*
X60807619Y-65780952D01*
X60902857Y-65733333D01*
X60950476Y-65733333D01*
X61045714Y-65780952D01*
X61093333Y-65828571D01*
X61140952Y-65923809D01*
X61140952Y-66114285D01*
X61188571Y-66209523D01*
X61236190Y-66257142D01*
X61331428Y-66304761D01*
X61521904Y-66304761D01*
X61617142Y-66257142D01*
X61664761Y-66209523D01*
X61712380Y-66114285D01*
X61712380Y-65923809D01*
X61664761Y-65828571D01*
X61617142Y-65780952D01*
X61521904Y-65733333D01*
X61331428Y-65733333D01*
X61236190Y-65780952D01*
X61188571Y-65828571D01*
X61140952Y-65923809D01*
%TO.C,TP9*%
X95252380Y-97967617D02*
X95252380Y-97396189D01*
X96252380Y-97681903D02*
X95252380Y-97681903D01*
X96252380Y-97062855D02*
X95252380Y-97062855D01*
X95252380Y-96681903D01*
X95300000Y-96586665D01*
X95347619Y-96539046D01*
X95442857Y-96491427D01*
X95585714Y-96491427D01*
X95680952Y-96539046D01*
X95728571Y-96586665D01*
X95776190Y-96681903D01*
X95776190Y-97062855D01*
X96252380Y-96015236D02*
X96252380Y-95824760D01*
X96204761Y-95729522D01*
X96157142Y-95681903D01*
X96014285Y-95586665D01*
X95823809Y-95539046D01*
X95442857Y-95539046D01*
X95347619Y-95586665D01*
X95300000Y-95634284D01*
X95252380Y-95729522D01*
X95252380Y-95919998D01*
X95300000Y-96015236D01*
X95347619Y-96062855D01*
X95442857Y-96110474D01*
X95680952Y-96110474D01*
X95776190Y-96062855D01*
X95823809Y-96015236D01*
X95871428Y-95919998D01*
X95871428Y-95729522D01*
X95823809Y-95634284D01*
X95776190Y-95586665D01*
X95680952Y-95539046D01*
%TO.C,TP10*%
X86652380Y-100843808D02*
X86652380Y-100272379D01*
X87652380Y-100558093D02*
X86652380Y-100558093D01*
X87652380Y-99939046D02*
X86652380Y-99939046D01*
X86652380Y-99558093D01*
X86700000Y-99462855D01*
X86747619Y-99415236D01*
X86842857Y-99367617D01*
X86985714Y-99367617D01*
X87080952Y-99415236D01*
X87128571Y-99462855D01*
X87176190Y-99558093D01*
X87176190Y-99939046D01*
X87652380Y-98415236D02*
X87652380Y-98986665D01*
X87652380Y-98700951D02*
X86652380Y-98700951D01*
X86795238Y-98796189D01*
X86890476Y-98891427D01*
X86938095Y-98986665D01*
X86652380Y-97796189D02*
X86652380Y-97700951D01*
X86700000Y-97605713D01*
X86747619Y-97558093D01*
X86842857Y-97510474D01*
X87033333Y-97462855D01*
X87271428Y-97462855D01*
X87461904Y-97510474D01*
X87557142Y-97558093D01*
X87604761Y-97605713D01*
X87652380Y-97700951D01*
X87652380Y-97796189D01*
X87604761Y-97891427D01*
X87557142Y-97939046D01*
X87461904Y-97986665D01*
X87271428Y-98034284D01*
X87033333Y-98034284D01*
X86842857Y-97986665D01*
X86747619Y-97939046D01*
X86700000Y-97891427D01*
X86652380Y-97796189D01*
%TO.C,TP11*%
X90652380Y-99443808D02*
X90652380Y-98872379D01*
X91652380Y-99158093D02*
X90652380Y-99158093D01*
X91652380Y-98539046D02*
X90652380Y-98539046D01*
X90652380Y-98158093D01*
X90700000Y-98062855D01*
X90747619Y-98015236D01*
X90842857Y-97967617D01*
X90985714Y-97967617D01*
X91080952Y-98015236D01*
X91128571Y-98062855D01*
X91176190Y-98158093D01*
X91176190Y-98539046D01*
X91652380Y-97015236D02*
X91652380Y-97586665D01*
X91652380Y-97300951D02*
X90652380Y-97300951D01*
X90795238Y-97396189D01*
X90890476Y-97491427D01*
X90938095Y-97586665D01*
X91652380Y-96062855D02*
X91652380Y-96634284D01*
X91652380Y-96348570D02*
X90652380Y-96348570D01*
X90795238Y-96443808D01*
X90890476Y-96539046D01*
X90938095Y-96634284D01*
%TO.C,TP12*%
X92252380Y-68443808D02*
X92252380Y-67872379D01*
X93252380Y-68158093D02*
X92252380Y-68158093D01*
X93252380Y-67539046D02*
X92252380Y-67539046D01*
X92252380Y-67158093D01*
X92300000Y-67062855D01*
X92347619Y-67015236D01*
X92442857Y-66967617D01*
X92585714Y-66967617D01*
X92680952Y-67015236D01*
X92728571Y-67062855D01*
X92776190Y-67158093D01*
X92776190Y-67539046D01*
X93252380Y-66015236D02*
X93252380Y-66586665D01*
X93252380Y-66300951D02*
X92252380Y-66300951D01*
X92395238Y-66396189D01*
X92490476Y-66491427D01*
X92538095Y-66586665D01*
X92347619Y-65634284D02*
X92300000Y-65586665D01*
X92252380Y-65491427D01*
X92252380Y-65253332D01*
X92300000Y-65158093D01*
X92347619Y-65110474D01*
X92442857Y-65062855D01*
X92538095Y-65062855D01*
X92680952Y-65110474D01*
X93252380Y-65681903D01*
X93252380Y-65062855D01*
%TO.C,TP13*%
X84652380Y-69043808D02*
X84652380Y-68472379D01*
X85652380Y-68758093D02*
X84652380Y-68758093D01*
X85652380Y-68139046D02*
X84652380Y-68139046D01*
X84652380Y-67758093D01*
X84700000Y-67662855D01*
X84747619Y-67615236D01*
X84842857Y-67567617D01*
X84985714Y-67567617D01*
X85080952Y-67615236D01*
X85128571Y-67662855D01*
X85176190Y-67758093D01*
X85176190Y-68139046D01*
X85652380Y-66615236D02*
X85652380Y-67186665D01*
X85652380Y-66900951D02*
X84652380Y-66900951D01*
X84795238Y-66996189D01*
X84890476Y-67091427D01*
X84938095Y-67186665D01*
X84652380Y-66281903D02*
X84652380Y-65662855D01*
X85033333Y-65996189D01*
X85033333Y-65853332D01*
X85080952Y-65758093D01*
X85128571Y-65710474D01*
X85223809Y-65662855D01*
X85461904Y-65662855D01*
X85557142Y-65710474D01*
X85604761Y-65758093D01*
X85652380Y-65853332D01*
X85652380Y-66139046D01*
X85604761Y-66234284D01*
X85557142Y-66281903D01*
%TO.C,TP14*%
X86852380Y-68643808D02*
X86852380Y-68072379D01*
X87852380Y-68358093D02*
X86852380Y-68358093D01*
X87852380Y-67739046D02*
X86852380Y-67739046D01*
X86852380Y-67358093D01*
X86900000Y-67262855D01*
X86947619Y-67215236D01*
X87042857Y-67167617D01*
X87185714Y-67167617D01*
X87280952Y-67215236D01*
X87328571Y-67262855D01*
X87376190Y-67358093D01*
X87376190Y-67739046D01*
X87852380Y-66215236D02*
X87852380Y-66786665D01*
X87852380Y-66500951D02*
X86852380Y-66500951D01*
X86995238Y-66596189D01*
X87090476Y-66691427D01*
X87138095Y-66786665D01*
X87185714Y-65358093D02*
X87852380Y-65358093D01*
X86804761Y-65596189D02*
X87519047Y-65834284D01*
X87519047Y-65215236D01*
%TO.C,U1*%
X41038095Y-77652380D02*
X41038095Y-78461904D01*
X41085714Y-78557142D01*
X41133333Y-78604761D01*
X41228571Y-78652380D01*
X41419047Y-78652380D01*
X41514285Y-78604761D01*
X41561904Y-78557142D01*
X41609523Y-78461904D01*
X41609523Y-77652380D01*
X42609523Y-78652380D02*
X42038095Y-78652380D01*
X42323809Y-78652380D02*
X42323809Y-77652380D01*
X42228571Y-77795238D01*
X42133333Y-77890476D01*
X42038095Y-77938095D01*
%TO.C,U2*%
X22352380Y-72561904D02*
X23161904Y-72561904D01*
X23257142Y-72514285D01*
X23304761Y-72466666D01*
X23352380Y-72371428D01*
X23352380Y-72180952D01*
X23304761Y-72085714D01*
X23257142Y-72038095D01*
X23161904Y-71990476D01*
X22352380Y-71990476D01*
X22447619Y-71561904D02*
X22400000Y-71514285D01*
X22352380Y-71419047D01*
X22352380Y-71180952D01*
X22400000Y-71085714D01*
X22447619Y-71038095D01*
X22542857Y-70990476D01*
X22638095Y-70990476D01*
X22780952Y-71038095D01*
X23352380Y-71609523D01*
X23352380Y-70990476D01*
%TO.C,U3*%
X54788095Y-74852380D02*
X54788095Y-75661904D01*
X54835714Y-75757142D01*
X54883333Y-75804761D01*
X54978571Y-75852380D01*
X55169047Y-75852380D01*
X55264285Y-75804761D01*
X55311904Y-75757142D01*
X55359523Y-75661904D01*
X55359523Y-74852380D01*
X55740476Y-74852380D02*
X56359523Y-74852380D01*
X56026190Y-75233333D01*
X56169047Y-75233333D01*
X56264285Y-75280952D01*
X56311904Y-75328571D01*
X56359523Y-75423809D01*
X56359523Y-75661904D01*
X56311904Y-75757142D01*
X56264285Y-75804761D01*
X56169047Y-75852380D01*
X55883333Y-75852380D01*
X55788095Y-75804761D01*
X55740476Y-75757142D01*
%TO.C,U4*%
X74638095Y-92902380D02*
X74638095Y-93711904D01*
X74685714Y-93807142D01*
X74733333Y-93854761D01*
X74828571Y-93902380D01*
X75019047Y-93902380D01*
X75114285Y-93854761D01*
X75161904Y-93807142D01*
X75209523Y-93711904D01*
X75209523Y-92902380D01*
X76114285Y-93235714D02*
X76114285Y-93902380D01*
X75876190Y-92854761D02*
X75638095Y-93569047D01*
X76257142Y-93569047D01*
%TO.C,Y1*%
X39723809Y-72826190D02*
X39723809Y-73302380D01*
X39390476Y-72302380D02*
X39723809Y-72826190D01*
X40057142Y-72302380D01*
X40914285Y-73302380D02*
X40342857Y-73302380D01*
X40628571Y-73302380D02*
X40628571Y-72302380D01*
X40533333Y-72445238D01*
X40438095Y-72540476D01*
X40342857Y-72588095D01*
%TO.C,Y2*%
X64720476Y-87720477D02*
X65196666Y-87720477D01*
X64196666Y-88053810D02*
X64720476Y-87720477D01*
X64196666Y-87387144D01*
X64291905Y-87101429D02*
X64244286Y-87053810D01*
X64196666Y-86958572D01*
X64196666Y-86720477D01*
X64244286Y-86625239D01*
X64291905Y-86577620D01*
X64387143Y-86530001D01*
X64482381Y-86530001D01*
X64625238Y-86577620D01*
X65196666Y-87149048D01*
X65196666Y-86530001D01*
%TO.C,R39*%
X87852380Y-89748570D02*
X87376190Y-90081903D01*
X87852380Y-90319998D02*
X86852380Y-90319998D01*
X86852380Y-89939046D01*
X86900000Y-89843808D01*
X86947619Y-89796189D01*
X87042857Y-89748570D01*
X87185714Y-89748570D01*
X87280952Y-89796189D01*
X87328571Y-89843808D01*
X87376190Y-89939046D01*
X87376190Y-90319998D01*
X86852380Y-89415236D02*
X86852380Y-88796189D01*
X87233333Y-89129522D01*
X87233333Y-88986665D01*
X87280952Y-88891427D01*
X87328571Y-88843808D01*
X87423809Y-88796189D01*
X87661904Y-88796189D01*
X87757142Y-88843808D01*
X87804761Y-88891427D01*
X87852380Y-88986665D01*
X87852380Y-89272379D01*
X87804761Y-89367617D01*
X87757142Y-89415236D01*
X87852380Y-88319998D02*
X87852380Y-88129522D01*
X87804761Y-88034284D01*
X87757142Y-87986665D01*
X87614285Y-87891427D01*
X87423809Y-87843808D01*
X87042857Y-87843808D01*
X86947619Y-87891427D01*
X86900000Y-87939046D01*
X86852380Y-88034284D01*
X86852380Y-88224760D01*
X86900000Y-88319998D01*
X86947619Y-88367617D01*
X87042857Y-88415236D01*
X87280952Y-88415236D01*
X87376190Y-88367617D01*
X87423809Y-88319998D01*
X87471428Y-88224760D01*
X87471428Y-88034284D01*
X87423809Y-87939046D01*
X87376190Y-87891427D01*
X87280952Y-87843808D01*
%TO.C,R40*%
X84352380Y-89748570D02*
X83876190Y-90081903D01*
X84352380Y-90319998D02*
X83352380Y-90319998D01*
X83352380Y-89939046D01*
X83400000Y-89843808D01*
X83447619Y-89796189D01*
X83542857Y-89748570D01*
X83685714Y-89748570D01*
X83780952Y-89796189D01*
X83828571Y-89843808D01*
X83876190Y-89939046D01*
X83876190Y-90319998D01*
X83685714Y-88891427D02*
X84352380Y-88891427D01*
X83304761Y-89129522D02*
X84019047Y-89367617D01*
X84019047Y-88748570D01*
X83352380Y-88177141D02*
X83352380Y-88081903D01*
X83400000Y-87986665D01*
X83447619Y-87939046D01*
X83542857Y-87891427D01*
X83733333Y-87843808D01*
X83971428Y-87843808D01*
X84161904Y-87891427D01*
X84257142Y-87939046D01*
X84304761Y-87986665D01*
X84352380Y-88081903D01*
X84352380Y-88177141D01*
X84304761Y-88272379D01*
X84257142Y-88319998D01*
X84161904Y-88367617D01*
X83971428Y-88415236D01*
X83733333Y-88415236D01*
X83542857Y-88367617D01*
X83447619Y-88319998D01*
X83400000Y-88272379D01*
X83352380Y-88177141D01*
%TO.C,R41*%
X95852380Y-89548570D02*
X95376190Y-89881903D01*
X95852380Y-90119998D02*
X94852380Y-90119998D01*
X94852380Y-89739046D01*
X94900000Y-89643808D01*
X94947619Y-89596189D01*
X95042857Y-89548570D01*
X95185714Y-89548570D01*
X95280952Y-89596189D01*
X95328571Y-89643808D01*
X95376190Y-89739046D01*
X95376190Y-90119998D01*
X95185714Y-88691427D02*
X95852380Y-88691427D01*
X94804761Y-88929522D02*
X95519047Y-89167617D01*
X95519047Y-88548570D01*
X95852380Y-87643808D02*
X95852380Y-88215236D01*
X95852380Y-87929522D02*
X94852380Y-87929522D01*
X94995238Y-88024760D01*
X95090476Y-88119998D01*
X95138095Y-88215236D01*
%TO.C,R42*%
X91252380Y-89748570D02*
X90776190Y-90081903D01*
X91252380Y-90319998D02*
X90252380Y-90319998D01*
X90252380Y-89939046D01*
X90300000Y-89843808D01*
X90347619Y-89796189D01*
X90442857Y-89748570D01*
X90585714Y-89748570D01*
X90680952Y-89796189D01*
X90728571Y-89843808D01*
X90776190Y-89939046D01*
X90776190Y-90319998D01*
X90585714Y-88891427D02*
X91252380Y-88891427D01*
X90204761Y-89129522D02*
X90919047Y-89367617D01*
X90919047Y-88748570D01*
X90347619Y-88415236D02*
X90300000Y-88367617D01*
X90252380Y-88272379D01*
X90252380Y-88034284D01*
X90300000Y-87939046D01*
X90347619Y-87891427D01*
X90442857Y-87843808D01*
X90538095Y-87843808D01*
X90680952Y-87891427D01*
X91252380Y-88462855D01*
X91252380Y-87843808D01*
%TO.C,R43*%
X83652380Y-76348570D02*
X83176190Y-76681903D01*
X83652380Y-76919998D02*
X82652380Y-76919998D01*
X82652380Y-76539046D01*
X82700000Y-76443808D01*
X82747619Y-76396189D01*
X82842857Y-76348570D01*
X82985714Y-76348570D01*
X83080952Y-76396189D01*
X83128571Y-76443808D01*
X83176190Y-76539046D01*
X83176190Y-76919998D01*
X82985714Y-75491427D02*
X83652380Y-75491427D01*
X82604761Y-75729522D02*
X83319047Y-75967617D01*
X83319047Y-75348570D01*
X82652380Y-75062855D02*
X82652380Y-74443808D01*
X83033333Y-74777141D01*
X83033333Y-74634284D01*
X83080952Y-74539046D01*
X83128571Y-74491427D01*
X83223809Y-74443808D01*
X83461904Y-74443808D01*
X83557142Y-74491427D01*
X83604761Y-74539046D01*
X83652380Y-74634284D01*
X83652380Y-74919998D01*
X83604761Y-75015236D01*
X83557142Y-75062855D01*
%TO.C,R44*%
X87852380Y-76148570D02*
X87376190Y-76481903D01*
X87852380Y-76719998D02*
X86852380Y-76719998D01*
X86852380Y-76339046D01*
X86900000Y-76243808D01*
X86947619Y-76196189D01*
X87042857Y-76148570D01*
X87185714Y-76148570D01*
X87280952Y-76196189D01*
X87328571Y-76243808D01*
X87376190Y-76339046D01*
X87376190Y-76719998D01*
X87185714Y-75291427D02*
X87852380Y-75291427D01*
X86804761Y-75529522D02*
X87519047Y-75767617D01*
X87519047Y-75148570D01*
X87185714Y-74339046D02*
X87852380Y-74339046D01*
X86804761Y-74577141D02*
X87519047Y-74815236D01*
X87519047Y-74196189D01*
%TO.C,R45*%
X91252380Y-76348570D02*
X90776190Y-76681903D01*
X91252380Y-76919998D02*
X90252380Y-76919998D01*
X90252380Y-76539046D01*
X90300000Y-76443808D01*
X90347619Y-76396189D01*
X90442857Y-76348570D01*
X90585714Y-76348570D01*
X90680952Y-76396189D01*
X90728571Y-76443808D01*
X90776190Y-76539046D01*
X90776190Y-76919998D01*
X90585714Y-75491427D02*
X91252380Y-75491427D01*
X90204761Y-75729522D02*
X90919047Y-75967617D01*
X90919047Y-75348570D01*
X90252380Y-74491427D02*
X90252380Y-74967617D01*
X90728571Y-75015236D01*
X90680952Y-74967617D01*
X90633333Y-74872379D01*
X90633333Y-74634284D01*
X90680952Y-74539046D01*
X90728571Y-74491427D01*
X90823809Y-74443808D01*
X91061904Y-74443808D01*
X91157142Y-74491427D01*
X91204761Y-74539046D01*
X91252380Y-74634284D01*
X91252380Y-74872379D01*
X91204761Y-74967617D01*
X91157142Y-75015236D01*
%TO.C,R46*%
X95452380Y-76348570D02*
X94976190Y-76681903D01*
X95452380Y-76919998D02*
X94452380Y-76919998D01*
X94452380Y-76539046D01*
X94500000Y-76443808D01*
X94547619Y-76396189D01*
X94642857Y-76348570D01*
X94785714Y-76348570D01*
X94880952Y-76396189D01*
X94928571Y-76443808D01*
X94976190Y-76539046D01*
X94976190Y-76919998D01*
X94785714Y-75491427D02*
X95452380Y-75491427D01*
X94404761Y-75729522D02*
X95119047Y-75967617D01*
X95119047Y-75348570D01*
X94452380Y-74539046D02*
X94452380Y-74729522D01*
X94500000Y-74824760D01*
X94547619Y-74872379D01*
X94690476Y-74967617D01*
X94880952Y-75015236D01*
X95261904Y-75015236D01*
X95357142Y-74967617D01*
X95404761Y-74919998D01*
X95452380Y-74824760D01*
X95452380Y-74634284D01*
X95404761Y-74539046D01*
X95357142Y-74491427D01*
X95261904Y-74443808D01*
X95023809Y-74443808D01*
X94928571Y-74491427D01*
X94880952Y-74539046D01*
X94833333Y-74634284D01*
X94833333Y-74824760D01*
X94880952Y-74919998D01*
X94928571Y-74967617D01*
X95023809Y-75015236D01*
%TO.C,Q1*%
X33304761Y-89647619D02*
X33209523Y-89600000D01*
X33114285Y-89504761D01*
X32971428Y-89361904D01*
X32876190Y-89314285D01*
X32780952Y-89314285D01*
X32828571Y-89552380D02*
X32733333Y-89504761D01*
X32638095Y-89409523D01*
X32590476Y-89219047D01*
X32590476Y-88885714D01*
X32638095Y-88695238D01*
X32733333Y-88600000D01*
X32828571Y-88552380D01*
X33019047Y-88552380D01*
X33114285Y-88600000D01*
X33209523Y-88695238D01*
X33257142Y-88885714D01*
X33257142Y-89219047D01*
X33209523Y-89409523D01*
X33114285Y-89504761D01*
X33019047Y-89552380D01*
X32828571Y-89552380D01*
X34209523Y-89552380D02*
X33638095Y-89552380D01*
X33923809Y-89552380D02*
X33923809Y-88552380D01*
X33828571Y-88695238D01*
X33733333Y-88790476D01*
X33638095Y-88838095D01*
%TO.C,Q2*%
X29397619Y-91195238D02*
X29350000Y-91290476D01*
X29254761Y-91385714D01*
X29111904Y-91528571D01*
X29064285Y-91623809D01*
X29064285Y-91719047D01*
X29302380Y-91671428D02*
X29254761Y-91766666D01*
X29159523Y-91861904D01*
X28969047Y-91909523D01*
X28635714Y-91909523D01*
X28445238Y-91861904D01*
X28350000Y-91766666D01*
X28302380Y-91671428D01*
X28302380Y-91480952D01*
X28350000Y-91385714D01*
X28445238Y-91290476D01*
X28635714Y-91242857D01*
X28969047Y-91242857D01*
X29159523Y-91290476D01*
X29254761Y-91385714D01*
X29302380Y-91480952D01*
X29302380Y-91671428D01*
X28397619Y-90861904D02*
X28350000Y-90814285D01*
X28302380Y-90719047D01*
X28302380Y-90480952D01*
X28350000Y-90385714D01*
X28397619Y-90338095D01*
X28492857Y-90290476D01*
X28588095Y-90290476D01*
X28730952Y-90338095D01*
X29302380Y-90909523D01*
X29302380Y-90290476D01*
%TO.C,Q3*%
X47854761Y-71447619D02*
X47759523Y-71400000D01*
X47664285Y-71304761D01*
X47521428Y-71161904D01*
X47426190Y-71114285D01*
X47330952Y-71114285D01*
X47378571Y-71352380D02*
X47283333Y-71304761D01*
X47188095Y-71209523D01*
X47140476Y-71019047D01*
X47140476Y-70685714D01*
X47188095Y-70495238D01*
X47283333Y-70400000D01*
X47378571Y-70352380D01*
X47569047Y-70352380D01*
X47664285Y-70400000D01*
X47759523Y-70495238D01*
X47807142Y-70685714D01*
X47807142Y-71019047D01*
X47759523Y-71209523D01*
X47664285Y-71304761D01*
X47569047Y-71352380D01*
X47378571Y-71352380D01*
X48140476Y-70352380D02*
X48759523Y-70352380D01*
X48426190Y-70733333D01*
X48569047Y-70733333D01*
X48664285Y-70780952D01*
X48711904Y-70828571D01*
X48759523Y-70923809D01*
X48759523Y-71161904D01*
X48711904Y-71257142D01*
X48664285Y-71304761D01*
X48569047Y-71352380D01*
X48283333Y-71352380D01*
X48188095Y-71304761D01*
X48140476Y-71257142D01*
%TO.C,J1*%
X16052380Y-83133333D02*
X16766666Y-83133333D01*
X16909523Y-83180952D01*
X17004761Y-83276190D01*
X17052380Y-83419047D01*
X17052380Y-83514285D01*
X17052380Y-82133333D02*
X17052380Y-82704761D01*
X17052380Y-82419047D02*
X16052380Y-82419047D01*
X16195238Y-82514285D01*
X16290476Y-82609523D01*
X16338095Y-82704761D01*
%TO.C,C2*%
X16033333Y-80557142D02*
X15985714Y-80604761D01*
X15842857Y-80652380D01*
X15747619Y-80652380D01*
X15604761Y-80604761D01*
X15509523Y-80509523D01*
X15461904Y-80414285D01*
X15414285Y-80223809D01*
X15414285Y-80080952D01*
X15461904Y-79890476D01*
X15509523Y-79795238D01*
X15604761Y-79700000D01*
X15747619Y-79652380D01*
X15842857Y-79652380D01*
X15985714Y-79700000D01*
X16033333Y-79747619D01*
X16414285Y-79747619D02*
X16461904Y-79700000D01*
X16557142Y-79652380D01*
X16795238Y-79652380D01*
X16890476Y-79700000D01*
X16938095Y-79747619D01*
X16985714Y-79842857D01*
X16985714Y-79938095D01*
X16938095Y-80080952D01*
X16366666Y-80652380D01*
X16985714Y-80652380D01*
%TO.C,C5*%
X16357142Y-75766666D02*
X16404761Y-75814285D01*
X16452380Y-75957142D01*
X16452380Y-76052380D01*
X16404761Y-76195238D01*
X16309523Y-76290476D01*
X16214285Y-76338095D01*
X16023809Y-76385714D01*
X15880952Y-76385714D01*
X15690476Y-76338095D01*
X15595238Y-76290476D01*
X15500000Y-76195238D01*
X15452380Y-76052380D01*
X15452380Y-75957142D01*
X15500000Y-75814285D01*
X15547619Y-75766666D01*
X15452380Y-74861904D02*
X15452380Y-75338095D01*
X15928571Y-75385714D01*
X15880952Y-75338095D01*
X15833333Y-75242857D01*
X15833333Y-75004761D01*
X15880952Y-74909523D01*
X15928571Y-74861904D01*
X16023809Y-74814285D01*
X16261904Y-74814285D01*
X16357142Y-74861904D01*
X16404761Y-74909523D01*
X16452380Y-75004761D01*
X16452380Y-75242857D01*
X16404761Y-75338095D01*
X16357142Y-75385714D01*
%TO.C,C4*%
X42958333Y-75327142D02*
X42910714Y-75374761D01*
X42767857Y-75422380D01*
X42672619Y-75422380D01*
X42529761Y-75374761D01*
X42434523Y-75279523D01*
X42386904Y-75184285D01*
X42339285Y-74993809D01*
X42339285Y-74850952D01*
X42386904Y-74660476D01*
X42434523Y-74565238D01*
X42529761Y-74470000D01*
X42672619Y-74422380D01*
X42767857Y-74422380D01*
X42910714Y-74470000D01*
X42958333Y-74517619D01*
X43815476Y-74755714D02*
X43815476Y-75422380D01*
X43577380Y-74374761D02*
X43339285Y-75089047D01*
X43958333Y-75089047D01*
%TO.C,C1*%
X38333333Y-75357142D02*
X38285714Y-75404761D01*
X38142857Y-75452380D01*
X38047619Y-75452380D01*
X37904761Y-75404761D01*
X37809523Y-75309523D01*
X37761904Y-75214285D01*
X37714285Y-75023809D01*
X37714285Y-74880952D01*
X37761904Y-74690476D01*
X37809523Y-74595238D01*
X37904761Y-74500000D01*
X38047619Y-74452380D01*
X38142857Y-74452380D01*
X38285714Y-74500000D01*
X38333333Y-74547619D01*
X39285714Y-75452380D02*
X38714285Y-75452380D01*
X39000000Y-75452380D02*
X39000000Y-74452380D01*
X38904761Y-74595238D01*
X38809523Y-74690476D01*
X38714285Y-74738095D01*
%TO.C,TP17*%
X48461904Y-96852380D02*
X49033333Y-96852380D01*
X48747619Y-97852380D02*
X48747619Y-96852380D01*
X49366666Y-97852380D02*
X49366666Y-96852380D01*
X49747619Y-96852380D01*
X49842857Y-96900000D01*
X49890476Y-96947619D01*
X49938095Y-97042857D01*
X49938095Y-97185714D01*
X49890476Y-97280952D01*
X49842857Y-97328571D01*
X49747619Y-97376190D01*
X49366666Y-97376190D01*
X50890476Y-97852380D02*
X50319047Y-97852380D01*
X50604761Y-97852380D02*
X50604761Y-96852380D01*
X50509523Y-96995238D01*
X50414285Y-97090476D01*
X50319047Y-97138095D01*
X51223809Y-96852380D02*
X51890476Y-96852380D01*
X51461904Y-97852380D01*
%TO.C,TP20*%
X62461904Y-64052380D02*
X63033333Y-64052380D01*
X62747619Y-65052380D02*
X62747619Y-64052380D01*
X63366666Y-65052380D02*
X63366666Y-64052380D01*
X63747619Y-64052380D01*
X63842857Y-64100000D01*
X63890476Y-64147619D01*
X63938095Y-64242857D01*
X63938095Y-64385714D01*
X63890476Y-64480952D01*
X63842857Y-64528571D01*
X63747619Y-64576190D01*
X63366666Y-64576190D01*
X64319047Y-64147619D02*
X64366666Y-64100000D01*
X64461904Y-64052380D01*
X64700000Y-64052380D01*
X64795238Y-64100000D01*
X64842857Y-64147619D01*
X64890476Y-64242857D01*
X64890476Y-64338095D01*
X64842857Y-64480952D01*
X64271428Y-65052380D01*
X64890476Y-65052380D01*
X65509523Y-64052380D02*
X65604761Y-64052380D01*
X65700000Y-64100000D01*
X65747619Y-64147619D01*
X65795238Y-64242857D01*
X65842857Y-64433333D01*
X65842857Y-64671428D01*
X65795238Y-64861904D01*
X65747619Y-64957142D01*
X65700000Y-65004761D01*
X65604761Y-65052380D01*
X65509523Y-65052380D01*
X65414285Y-65004761D01*
X65366666Y-64957142D01*
X65319047Y-64861904D01*
X65271428Y-64671428D01*
X65271428Y-64433333D01*
X65319047Y-64242857D01*
X65366666Y-64147619D01*
X65414285Y-64100000D01*
X65509523Y-64052380D01*
%TO.C,TP15*%
X51261904Y-95652380D02*
X51833333Y-95652380D01*
X51547619Y-96652380D02*
X51547619Y-95652380D01*
X52166666Y-96652380D02*
X52166666Y-95652380D01*
X52547619Y-95652380D01*
X52642857Y-95700000D01*
X52690476Y-95747619D01*
X52738095Y-95842857D01*
X52738095Y-95985714D01*
X52690476Y-96080952D01*
X52642857Y-96128571D01*
X52547619Y-96176190D01*
X52166666Y-96176190D01*
X53690476Y-96652380D02*
X53119047Y-96652380D01*
X53404761Y-96652380D02*
X53404761Y-95652380D01*
X53309523Y-95795238D01*
X53214285Y-95890476D01*
X53119047Y-95938095D01*
X54595238Y-95652380D02*
X54119047Y-95652380D01*
X54071428Y-96128571D01*
X54119047Y-96080952D01*
X54214285Y-96033333D01*
X54452380Y-96033333D01*
X54547619Y-96080952D01*
X54595238Y-96128571D01*
X54642857Y-96223809D01*
X54642857Y-96461904D01*
X54595238Y-96557142D01*
X54547619Y-96604761D01*
X54452380Y-96652380D01*
X54214285Y-96652380D01*
X54119047Y-96604761D01*
X54071428Y-96557142D01*
%TO.C,TP23*%
X62461904Y-68052380D02*
X63033333Y-68052380D01*
X62747619Y-69052380D02*
X62747619Y-68052380D01*
X63366666Y-69052380D02*
X63366666Y-68052380D01*
X63747619Y-68052380D01*
X63842857Y-68100000D01*
X63890476Y-68147619D01*
X63938095Y-68242857D01*
X63938095Y-68385714D01*
X63890476Y-68480952D01*
X63842857Y-68528571D01*
X63747619Y-68576190D01*
X63366666Y-68576190D01*
X64319047Y-68147619D02*
X64366666Y-68100000D01*
X64461904Y-68052380D01*
X64700000Y-68052380D01*
X64795238Y-68100000D01*
X64842857Y-68147619D01*
X64890476Y-68242857D01*
X64890476Y-68338095D01*
X64842857Y-68480952D01*
X64271428Y-69052380D01*
X64890476Y-69052380D01*
X65223809Y-68052380D02*
X65842857Y-68052380D01*
X65509523Y-68433333D01*
X65652380Y-68433333D01*
X65747619Y-68480952D01*
X65795238Y-68528571D01*
X65842857Y-68623809D01*
X65842857Y-68861904D01*
X65795238Y-68957142D01*
X65747619Y-69004761D01*
X65652380Y-69052380D01*
X65366666Y-69052380D01*
X65271428Y-69004761D01*
X65223809Y-68957142D01*
%TO.C,R26*%
X67472380Y-87242857D02*
X66996190Y-87576190D01*
X67472380Y-87814285D02*
X66472380Y-87814285D01*
X66472380Y-87433333D01*
X66520000Y-87338095D01*
X66567619Y-87290476D01*
X66662857Y-87242857D01*
X66805714Y-87242857D01*
X66900952Y-87290476D01*
X66948571Y-87338095D01*
X66996190Y-87433333D01*
X66996190Y-87814285D01*
X66567619Y-86861904D02*
X66520000Y-86814285D01*
X66472380Y-86719047D01*
X66472380Y-86480952D01*
X66520000Y-86385714D01*
X66567619Y-86338095D01*
X66662857Y-86290476D01*
X66758095Y-86290476D01*
X66900952Y-86338095D01*
X67472380Y-86909523D01*
X67472380Y-86290476D01*
X66472380Y-85433333D02*
X66472380Y-85623809D01*
X66520000Y-85719047D01*
X66567619Y-85766666D01*
X66710476Y-85861904D01*
X66900952Y-85909523D01*
X67281904Y-85909523D01*
X67377142Y-85861904D01*
X67424761Y-85814285D01*
X67472380Y-85719047D01*
X67472380Y-85528571D01*
X67424761Y-85433333D01*
X67377142Y-85385714D01*
X67281904Y-85338095D01*
X67043809Y-85338095D01*
X66948571Y-85385714D01*
X66900952Y-85433333D01*
X66853333Y-85528571D01*
X66853333Y-85719047D01*
X66900952Y-85814285D01*
X66948571Y-85861904D01*
X67043809Y-85909523D01*
%TO.C,TP16*%
X51461904Y-64252380D02*
X52033333Y-64252380D01*
X51747619Y-65252380D02*
X51747619Y-64252380D01*
X52366666Y-65252380D02*
X52366666Y-64252380D01*
X52747619Y-64252380D01*
X52842857Y-64300000D01*
X52890476Y-64347619D01*
X52938095Y-64442857D01*
X52938095Y-64585714D01*
X52890476Y-64680952D01*
X52842857Y-64728571D01*
X52747619Y-64776190D01*
X52366666Y-64776190D01*
X53890476Y-65252380D02*
X53319047Y-65252380D01*
X53604761Y-65252380D02*
X53604761Y-64252380D01*
X53509523Y-64395238D01*
X53414285Y-64490476D01*
X53319047Y-64538095D01*
X54747619Y-64252380D02*
X54557142Y-64252380D01*
X54461904Y-64300000D01*
X54414285Y-64347619D01*
X54319047Y-64490476D01*
X54271428Y-64680952D01*
X54271428Y-65061904D01*
X54319047Y-65157142D01*
X54366666Y-65204761D01*
X54461904Y-65252380D01*
X54652380Y-65252380D01*
X54747619Y-65204761D01*
X54795238Y-65157142D01*
X54842857Y-65061904D01*
X54842857Y-64823809D01*
X54795238Y-64728571D01*
X54747619Y-64680952D01*
X54652380Y-64633333D01*
X54461904Y-64633333D01*
X54366666Y-64680952D01*
X54319047Y-64728571D01*
X54271428Y-64823809D01*
%TO.C,TP18*%
X47661904Y-101252380D02*
X48233333Y-101252380D01*
X47947619Y-102252380D02*
X47947619Y-101252380D01*
X48566666Y-102252380D02*
X48566666Y-101252380D01*
X48947619Y-101252380D01*
X49042857Y-101300000D01*
X49090476Y-101347619D01*
X49138095Y-101442857D01*
X49138095Y-101585714D01*
X49090476Y-101680952D01*
X49042857Y-101728571D01*
X48947619Y-101776190D01*
X48566666Y-101776190D01*
X50090476Y-102252380D02*
X49519047Y-102252380D01*
X49804761Y-102252380D02*
X49804761Y-101252380D01*
X49709523Y-101395238D01*
X49614285Y-101490476D01*
X49519047Y-101538095D01*
X50661904Y-101680952D02*
X50566666Y-101633333D01*
X50519047Y-101585714D01*
X50471428Y-101490476D01*
X50471428Y-101442857D01*
X50519047Y-101347619D01*
X50566666Y-101300000D01*
X50661904Y-101252380D01*
X50852380Y-101252380D01*
X50947619Y-101300000D01*
X50995238Y-101347619D01*
X51042857Y-101442857D01*
X51042857Y-101490476D01*
X50995238Y-101585714D01*
X50947619Y-101633333D01*
X50852380Y-101680952D01*
X50661904Y-101680952D01*
X50566666Y-101728571D01*
X50519047Y-101776190D01*
X50471428Y-101871428D01*
X50471428Y-102061904D01*
X50519047Y-102157142D01*
X50566666Y-102204761D01*
X50661904Y-102252380D01*
X50852380Y-102252380D01*
X50947619Y-102204761D01*
X50995238Y-102157142D01*
X51042857Y-102061904D01*
X51042857Y-101871428D01*
X50995238Y-101776190D01*
X50947619Y-101728571D01*
X50852380Y-101680952D01*
%TO.C,C25*%
X68432142Y-89727142D02*
X68384523Y-89774761D01*
X68241666Y-89822380D01*
X68146428Y-89822380D01*
X68003571Y-89774761D01*
X67908333Y-89679523D01*
X67860714Y-89584285D01*
X67813095Y-89393809D01*
X67813095Y-89250952D01*
X67860714Y-89060476D01*
X67908333Y-88965238D01*
X68003571Y-88870000D01*
X68146428Y-88822380D01*
X68241666Y-88822380D01*
X68384523Y-88870000D01*
X68432142Y-88917619D01*
X68813095Y-88917619D02*
X68860714Y-88870000D01*
X68955952Y-88822380D01*
X69194047Y-88822380D01*
X69289285Y-88870000D01*
X69336904Y-88917619D01*
X69384523Y-89012857D01*
X69384523Y-89108095D01*
X69336904Y-89250952D01*
X68765476Y-89822380D01*
X69384523Y-89822380D01*
X70289285Y-88822380D02*
X69813095Y-88822380D01*
X69765476Y-89298571D01*
X69813095Y-89250952D01*
X69908333Y-89203333D01*
X70146428Y-89203333D01*
X70241666Y-89250952D01*
X70289285Y-89298571D01*
X70336904Y-89393809D01*
X70336904Y-89631904D01*
X70289285Y-89727142D01*
X70241666Y-89774761D01*
X70146428Y-89822380D01*
X69908333Y-89822380D01*
X69813095Y-89774761D01*
X69765476Y-89727142D01*
%TO.C,TP21*%
X63061904Y-63652380D02*
X63633333Y-63652380D01*
X63347619Y-64652380D02*
X63347619Y-63652380D01*
X63966666Y-64652380D02*
X63966666Y-63652380D01*
X64347619Y-63652380D01*
X64442857Y-63700000D01*
X64490476Y-63747619D01*
X64538095Y-63842857D01*
X64538095Y-63985714D01*
X64490476Y-64080952D01*
X64442857Y-64128571D01*
X64347619Y-64176190D01*
X63966666Y-64176190D01*
X64919047Y-63747619D02*
X64966666Y-63700000D01*
X65061904Y-63652380D01*
X65300000Y-63652380D01*
X65395238Y-63700000D01*
X65442857Y-63747619D01*
X65490476Y-63842857D01*
X65490476Y-63938095D01*
X65442857Y-64080952D01*
X64871428Y-64652380D01*
X65490476Y-64652380D01*
X66442857Y-64652380D02*
X65871428Y-64652380D01*
X66157142Y-64652380D02*
X66157142Y-63652380D01*
X66061904Y-63795238D01*
X65966666Y-63890476D01*
X65871428Y-63938095D01*
%TO.C,TP19*%
X44861904Y-96052380D02*
X45433333Y-96052380D01*
X45147619Y-97052380D02*
X45147619Y-96052380D01*
X45766666Y-97052380D02*
X45766666Y-96052380D01*
X46147619Y-96052380D01*
X46242857Y-96100000D01*
X46290476Y-96147619D01*
X46338095Y-96242857D01*
X46338095Y-96385714D01*
X46290476Y-96480952D01*
X46242857Y-96528571D01*
X46147619Y-96576190D01*
X45766666Y-96576190D01*
X47290476Y-97052380D02*
X46719047Y-97052380D01*
X47004761Y-97052380D02*
X47004761Y-96052380D01*
X46909523Y-96195238D01*
X46814285Y-96290476D01*
X46719047Y-96338095D01*
X47766666Y-97052380D02*
X47957142Y-97052380D01*
X48052380Y-97004761D01*
X48100000Y-96957142D01*
X48195238Y-96814285D01*
X48242857Y-96623809D01*
X48242857Y-96242857D01*
X48195238Y-96147619D01*
X48147619Y-96100000D01*
X48052380Y-96052380D01*
X47861904Y-96052380D01*
X47766666Y-96100000D01*
X47719047Y-96147619D01*
X47671428Y-96242857D01*
X47671428Y-96480952D01*
X47719047Y-96576190D01*
X47766666Y-96623809D01*
X47861904Y-96671428D01*
X48052380Y-96671428D01*
X48147619Y-96623809D01*
X48195238Y-96576190D01*
X48242857Y-96480952D01*
%TO.C,TP22*%
X50261904Y-100452380D02*
X50833333Y-100452380D01*
X50547619Y-101452380D02*
X50547619Y-100452380D01*
X51166666Y-101452380D02*
X51166666Y-100452380D01*
X51547619Y-100452380D01*
X51642857Y-100500000D01*
X51690476Y-100547619D01*
X51738095Y-100642857D01*
X51738095Y-100785714D01*
X51690476Y-100880952D01*
X51642857Y-100928571D01*
X51547619Y-100976190D01*
X51166666Y-100976190D01*
X52119047Y-100547619D02*
X52166666Y-100500000D01*
X52261904Y-100452380D01*
X52500000Y-100452380D01*
X52595238Y-100500000D01*
X52642857Y-100547619D01*
X52690476Y-100642857D01*
X52690476Y-100738095D01*
X52642857Y-100880952D01*
X52071428Y-101452380D01*
X52690476Y-101452380D01*
X53071428Y-100547619D02*
X53119047Y-100500000D01*
X53214285Y-100452380D01*
X53452380Y-100452380D01*
X53547619Y-100500000D01*
X53595238Y-100547619D01*
X53642857Y-100642857D01*
X53642857Y-100738095D01*
X53595238Y-100880952D01*
X53023809Y-101452380D01*
X53642857Y-101452380D01*
D11*
%TO.C,C3*%
X28484420Y-79490000D02*
X28765580Y-79490000D01*
X28484420Y-80510000D02*
X28765580Y-80510000D01*
%TO.C,C6*%
X47259420Y-78940000D02*
X47540580Y-78940000D01*
X47259420Y-79960000D02*
X47540580Y-79960000D01*
%TO.C,C7*%
X56390000Y-87115580D02*
X56390000Y-86834420D01*
X57410000Y-87115580D02*
X57410000Y-86834420D01*
%TO.C,C8*%
X57410000Y-89909420D02*
X57410000Y-90190580D01*
X56390000Y-89909420D02*
X56390000Y-90190580D01*
%TO.C,C9*%
X61860000Y-80065580D02*
X61860000Y-79784420D01*
X60840000Y-80065580D02*
X60840000Y-79784420D01*
%TO.C,C10*%
X60310000Y-80065580D02*
X60310000Y-79784420D01*
X59290000Y-80065580D02*
X59290000Y-79784420D01*
%TO.C,C11*%
X60390000Y-82834420D02*
X60390000Y-83115580D01*
X61410000Y-82834420D02*
X61410000Y-83115580D01*
%TO.C,C12*%
X80634286Y-91809420D02*
X80634286Y-92090580D01*
X81654286Y-91809420D02*
X81654286Y-92090580D01*
%TO.C,C13*%
X81654286Y-89090580D02*
X81654286Y-88809420D01*
X80634286Y-89090580D02*
X80634286Y-88809420D01*
%TO.C,C14*%
X70645563Y-78304287D02*
X71710000Y-77239850D01*
X70645563Y-78304287D02*
X69360000Y-78304287D01*
X66452500Y-79331787D02*
X66452500Y-78544287D01*
X64890000Y-77239850D02*
X64890000Y-71484287D01*
X71710000Y-77239850D02*
X71710000Y-71484287D01*
X66058750Y-78938037D02*
X66846250Y-78938037D01*
X64890000Y-71484287D02*
X67240000Y-71484287D01*
X71710000Y-71484287D02*
X69360000Y-71484287D01*
X65954437Y-78304287D02*
X64890000Y-77239850D01*
X65954437Y-78304287D02*
X67240000Y-78304287D01*
%TO.C,C15*%
X82134286Y-90510000D02*
X84484286Y-90510000D01*
X82134286Y-84754437D02*
X82134286Y-90510000D01*
X87889849Y-83690000D02*
X86604286Y-83690000D01*
X88954286Y-84754437D02*
X88954286Y-90510000D01*
X87785536Y-83056250D02*
X86998036Y-83056250D01*
X88954286Y-90510000D02*
X86604286Y-90510000D01*
X83198723Y-83690000D02*
X84484286Y-83690000D01*
X87391786Y-82662500D02*
X87391786Y-83450000D01*
X87889849Y-83690000D02*
X88954286Y-84754437D01*
X83198723Y-83690000D02*
X82134286Y-84754437D01*
%TO.C,C16*%
X95089849Y-83690000D02*
X96154286Y-84754437D01*
X96154286Y-84754437D02*
X96154286Y-90510000D01*
X94591786Y-82662500D02*
X94591786Y-83450000D01*
X89334286Y-84754437D02*
X89334286Y-90510000D01*
X96154286Y-90510000D02*
X93804286Y-90510000D01*
X95089849Y-83690000D02*
X93804286Y-83690000D01*
X94985536Y-83056250D02*
X94198036Y-83056250D01*
X90398723Y-83690000D02*
X89334286Y-84754437D01*
X89334286Y-90510000D02*
X91684286Y-90510000D01*
X90398723Y-83690000D02*
X91684286Y-83690000D01*
%TO.C,C17*%
X73802500Y-79331787D02*
X73802500Y-78544287D01*
X73304437Y-78304287D02*
X74590000Y-78304287D01*
X72240000Y-77239850D02*
X72240000Y-71484287D01*
X77995563Y-78304287D02*
X76710000Y-78304287D01*
X73408750Y-78938037D02*
X74196250Y-78938037D01*
X77995563Y-78304287D02*
X79060000Y-77239850D01*
X73304437Y-78304287D02*
X72240000Y-77239850D01*
X79060000Y-71484287D02*
X76710000Y-71484287D01*
X79060000Y-77239850D02*
X79060000Y-71484287D01*
X72240000Y-71484287D02*
X74590000Y-71484287D01*
%TO.C,C18*%
X68934420Y-89760000D02*
X69215580Y-89760000D01*
X68934420Y-88740000D02*
X69215580Y-88740000D01*
%TO.C,C19*%
X68959420Y-83490000D02*
X69240580Y-83490000D01*
X68959420Y-84510000D02*
X69240580Y-84510000D01*
%TO.C,C20*%
X96160000Y-79745563D02*
X96160000Y-73990000D01*
X89340000Y-79745563D02*
X89340000Y-73990000D01*
X90404437Y-80810000D02*
X91690000Y-80810000D01*
X95095563Y-80810000D02*
X93810000Y-80810000D01*
X95095563Y-80810000D02*
X96160000Y-79745563D01*
X89340000Y-73990000D02*
X91690000Y-73990000D01*
X90902500Y-81837500D02*
X90902500Y-81050000D01*
X90508750Y-81443750D02*
X91296250Y-81443750D01*
X96160000Y-73990000D02*
X93810000Y-73990000D01*
X90404437Y-80810000D02*
X89340000Y-79745563D01*
%TO.C,C21*%
X87845563Y-80810000D02*
X86560000Y-80810000D01*
X88910000Y-73990000D02*
X86560000Y-73990000D01*
X83258750Y-81443750D02*
X84046250Y-81443750D01*
X82090000Y-73990000D02*
X84440000Y-73990000D01*
X82090000Y-79745563D02*
X82090000Y-73990000D01*
X83652500Y-81837500D02*
X83652500Y-81050000D01*
X87845563Y-80810000D02*
X88910000Y-79745563D01*
X83154437Y-80810000D02*
X84440000Y-80810000D01*
X88910000Y-79745563D02*
X88910000Y-73990000D01*
X83154437Y-80810000D02*
X82090000Y-79745563D01*
%TO.C,C22*%
X60309420Y-90760000D02*
X60590580Y-90760000D01*
X60309420Y-89740000D02*
X60590580Y-89740000D01*
%TO.C,C23*%
X69165580Y-80190000D02*
X68884420Y-80190000D01*
X69165580Y-81210000D02*
X68884420Y-81210000D01*
%TO.C,C24*%
X68884420Y-81790000D02*
X69165580Y-81790000D01*
X68884420Y-82810000D02*
X69165580Y-82810000D01*
%TO.C,R1*%
X34167224Y-86022500D02*
X33657776Y-86022500D01*
X34167224Y-84977500D02*
X33657776Y-84977500D01*
%TO.C,R2*%
X34167224Y-83477500D02*
X33657776Y-83477500D01*
X34167224Y-84522500D02*
X33657776Y-84522500D01*
%TO.C,R3*%
X34167621Y-87380000D02*
X33832379Y-87380000D01*
X34167621Y-86620000D02*
X33832379Y-86620000D01*
%TO.C,R4*%
X34167621Y-88380000D02*
X33832379Y-88380000D01*
X34167621Y-87620000D02*
X33832379Y-87620000D01*
%TO.C,R5*%
X37022500Y-80045276D02*
X37022500Y-80554724D01*
X35977500Y-80045276D02*
X35977500Y-80554724D01*
%TO.C,R6*%
X45842224Y-78422500D02*
X45332776Y-78422500D01*
X45842224Y-77377500D02*
X45332776Y-77377500D01*
%TO.C,R7*%
X38120000Y-78832379D02*
X38120000Y-79167621D01*
X38880000Y-78832379D02*
X38880000Y-79167621D01*
%TO.C,R8*%
X41620000Y-90667621D02*
X41620000Y-90332379D01*
X42380000Y-90667621D02*
X42380000Y-90332379D01*
%TO.C,R9*%
X41380000Y-90667621D02*
X41380000Y-90332379D01*
X40620000Y-90667621D02*
X40620000Y-90332379D01*
%TO.C,R10*%
X45880000Y-90667621D02*
X45880000Y-90332379D01*
X45120000Y-90667621D02*
X45120000Y-90332379D01*
%TO.C,R11*%
X44880000Y-90667621D02*
X44880000Y-90332379D01*
X44120000Y-90667621D02*
X44120000Y-90332379D01*
%TO.C,R12*%
X48734879Y-83870000D02*
X49070121Y-83870000D01*
X48734879Y-84630000D02*
X49070121Y-84630000D01*
%TO.C,R13*%
X49070121Y-84870000D02*
X48734879Y-84870000D01*
X49070121Y-85630000D02*
X48734879Y-85630000D01*
%TO.C,R14*%
X39227500Y-91167224D02*
X39227500Y-90657776D01*
X40272500Y-91167224D02*
X40272500Y-90657776D01*
%TO.C,R15*%
X42727500Y-91167224D02*
X42727500Y-90657776D01*
X43772500Y-91167224D02*
X43772500Y-90657776D01*
%TO.C,R16*%
X46477500Y-90167224D02*
X46477500Y-89657776D01*
X47522500Y-90167224D02*
X47522500Y-89657776D01*
%TO.C,R17*%
X37634879Y-92420000D02*
X37970121Y-92420000D01*
X37634879Y-93180000D02*
X37970121Y-93180000D01*
%TO.C,R18*%
X37634879Y-91420000D02*
X37970121Y-91420000D01*
X37634879Y-92180000D02*
X37970121Y-92180000D01*
%TO.C,R19*%
X38522500Y-89842224D02*
X38522500Y-89332776D01*
X37477500Y-89842224D02*
X37477500Y-89332776D01*
%TO.C,R20*%
X33754724Y-93772500D02*
X33245276Y-93772500D01*
X33754724Y-92727500D02*
X33245276Y-92727500D01*
%TO.C,R21*%
X59980000Y-82382379D02*
X59980000Y-82717621D01*
X59220000Y-82382379D02*
X59220000Y-82717621D01*
%TO.C,R22*%
X60077500Y-86932776D02*
X60077500Y-87442224D01*
X61122500Y-86932776D02*
X61122500Y-87442224D01*
%TO.C,R23*%
X58477500Y-86932776D02*
X58477500Y-87442224D01*
X59522500Y-86932776D02*
X59522500Y-87442224D01*
%TO.C,R32*%
X50627500Y-77857776D02*
X50627500Y-78367224D01*
X51672500Y-77857776D02*
X51672500Y-78367224D01*
%TO.C,R33*%
X50627500Y-81232776D02*
X50627500Y-81742224D01*
X51672500Y-81232776D02*
X51672500Y-81742224D01*
%TO.C,R34*%
X49107776Y-74977500D02*
X49617224Y-74977500D01*
X49107776Y-76022500D02*
X49617224Y-76022500D01*
%TO.C,R35*%
X59754724Y-91352500D02*
X59245276Y-91352500D01*
X59754724Y-92397500D02*
X59245276Y-92397500D01*
%TO.C,R36*%
X59754724Y-93897500D02*
X59245276Y-93897500D01*
X59754724Y-92852500D02*
X59245276Y-92852500D01*
%TO.C,R37*%
X69642224Y-92877500D02*
X69132776Y-92877500D01*
X69642224Y-93922500D02*
X69132776Y-93922500D01*
%TO.C,R38*%
X81666786Y-86017224D02*
X81666786Y-85507776D01*
X80621786Y-86017224D02*
X80621786Y-85507776D01*
%TO.C,TP1*%
X33750000Y-79250000D02*
G75*
G03*
X33750000Y-79250000I-1500000J0D01*
G01*
%TO.C,TP2*%
X28500000Y-91000000D02*
G75*
G03*
X28500000Y-91000000I-1500000J0D01*
G01*
%TO.C,TP3*%
X32000000Y-86500000D02*
G75*
G03*
X32000000Y-86500000I-1500000J0D01*
G01*
%TO.C,TP4*%
X32000000Y-83000000D02*
G75*
G03*
X32000000Y-83000000I-1500000J0D01*
G01*
%TO.C,TP5*%
X59920000Y-72300000D02*
G75*
G03*
X59920000Y-72300000I-1500000J0D01*
G01*
%TO.C,TP6*%
X57380000Y-72300000D02*
G75*
G03*
X57380000Y-72300000I-1500000J0D01*
G01*
%TO.C,TP7*%
X54840000Y-72300000D02*
G75*
G03*
X54840000Y-72300000I-1500000J0D01*
G01*
%TO.C,TP8*%
X62460000Y-72300000D02*
G75*
G03*
X62460000Y-72300000I-1500000J0D01*
G01*
%TO.C,TP9*%
X94044286Y-94200000D02*
X92144286Y-94200000D01*
X94044286Y-92300000D02*
X94044286Y-94200000D01*
X92144286Y-92300000D02*
X94044286Y-92300000D01*
X92144286Y-94200000D02*
X92144286Y-92300000D01*
%TO.C,TP10*%
X84294286Y-92300000D02*
X86194286Y-92300000D01*
X84294286Y-94200000D02*
X84294286Y-92300000D01*
X86194286Y-94200000D02*
X84294286Y-94200000D01*
X86194286Y-92300000D02*
X86194286Y-94200000D01*
%TO.C,TP11*%
X88200000Y-94050000D02*
X88200000Y-92150000D01*
X88200000Y-92150000D02*
X90100000Y-92150000D01*
X90100000Y-92150000D02*
X90100000Y-94050000D01*
X90100000Y-94050000D02*
X88200000Y-94050000D01*
%TO.C,TP12*%
X94050000Y-72200000D02*
X92150000Y-72200000D01*
X94050000Y-70300000D02*
X94050000Y-72200000D01*
X92150000Y-70300000D02*
X94050000Y-70300000D01*
X92150000Y-72200000D02*
X92150000Y-70300000D01*
%TO.C,TP13*%
X86350000Y-72200000D02*
X84450000Y-72200000D01*
X84450000Y-72200000D02*
X84450000Y-70300000D01*
X84450000Y-70300000D02*
X86350000Y-70300000D01*
X86350000Y-70300000D02*
X86350000Y-72200000D01*
%TO.C,TP14*%
X90150000Y-70300000D02*
X90150000Y-72200000D01*
X88250000Y-72200000D02*
X88250000Y-70300000D01*
X88250000Y-70300000D02*
X90150000Y-70300000D01*
X90150000Y-72200000D02*
X88250000Y-72200000D01*
%TO.C,U1*%
X46110000Y-80390000D02*
X46110000Y-80690000D01*
X38890000Y-80690000D02*
X37575000Y-80690000D01*
X45810000Y-87610000D02*
X46110000Y-87610000D01*
X38890000Y-87610000D02*
X38890000Y-87310000D01*
X39190000Y-87610000D02*
X38890000Y-87610000D01*
X45810000Y-80390000D02*
X46110000Y-80390000D01*
X38890000Y-80390000D02*
X38890000Y-80690000D01*
X39190000Y-80390000D02*
X38890000Y-80390000D01*
X46110000Y-87610000D02*
X46110000Y-87310000D01*
%TO.C,U2*%
X29210000Y-72790000D02*
X27950000Y-72790000D01*
X22390000Y-78800000D02*
X22390000Y-72790000D01*
X22390000Y-72790000D02*
X23650000Y-72790000D01*
X29210000Y-76550000D02*
X29210000Y-72790000D01*
D10*
%TO.C,U3*%
X57625000Y-76325000D02*
X57625000Y-77435000D01*
X53475000Y-77435000D02*
X53475000Y-76325000D01*
X53475000Y-85275000D02*
X53475000Y-84165000D01*
X53475000Y-77435000D02*
X52350000Y-77435000D01*
X53475000Y-85275000D02*
X57625000Y-85275000D01*
X53475000Y-76325000D02*
X57625000Y-76325000D01*
X57625000Y-85275000D02*
X57625000Y-84165000D01*
%TO.C,U4*%
X78275000Y-81875000D02*
X78275000Y-82525000D01*
X78275000Y-92525000D02*
X72525000Y-92525000D01*
X78275000Y-92525000D02*
X78275000Y-91950000D01*
X72525000Y-92525000D02*
X72525000Y-91875000D01*
X78275000Y-81875000D02*
X72525000Y-81875000D01*
X78275000Y-91950000D02*
X79875000Y-91950000D01*
X72525000Y-81875000D02*
X72525000Y-82525000D01*
D11*
%TO.C,Y1*%
X33237500Y-75500000D02*
X45837500Y-75500000D01*
X33237500Y-70400000D02*
X33237500Y-75500000D01*
X45837500Y-70400000D02*
X33237500Y-70400000D01*
%TO.C,Y2*%
X67350000Y-80550000D02*
X62250000Y-80550000D01*
X67350000Y-93150000D02*
X67350000Y-80550000D01*
X62250000Y-80550000D02*
X62250000Y-93150000D01*
%TO.C,R39*%
X86877500Y-92107776D02*
X86877500Y-92617224D01*
X87922500Y-92107776D02*
X87922500Y-92617224D01*
%TO.C,R40*%
X82221786Y-92617224D02*
X82221786Y-92107776D01*
X83266786Y-92617224D02*
X83266786Y-92107776D01*
%TO.C,R41*%
X95121786Y-92107776D02*
X95121786Y-92617224D01*
X96166786Y-92107776D02*
X96166786Y-92617224D01*
%TO.C,R42*%
X91422500Y-92617224D02*
X91422500Y-92107776D01*
X90377500Y-92617224D02*
X90377500Y-92107776D01*
%TO.C,R43*%
X83922500Y-71532776D02*
X83922500Y-72042224D01*
X82877500Y-71532776D02*
X82877500Y-72042224D01*
%TO.C,R44*%
X87822500Y-72054724D02*
X87822500Y-71545276D01*
X86777500Y-72054724D02*
X86777500Y-71545276D01*
%TO.C,R45*%
X91622500Y-71550989D02*
X91622500Y-72060437D01*
X90577500Y-71550989D02*
X90577500Y-72060437D01*
%TO.C,R46*%
X94677500Y-72142224D02*
X94677500Y-71632776D01*
X95722500Y-72142224D02*
X95722500Y-71632776D01*
%TO.C,Q1*%
X33010000Y-89940000D02*
X33010000Y-92100000D01*
X36170000Y-89940000D02*
X35240000Y-89940000D01*
X33010000Y-89940000D02*
X33940000Y-89940000D01*
X36170000Y-89940000D02*
X36170000Y-91400000D01*
%TO.C,Q2*%
X29420000Y-91480000D02*
X30350000Y-91480000D01*
X32580000Y-91480000D02*
X31650000Y-91480000D01*
X32580000Y-91480000D02*
X32580000Y-89320000D01*
X29420000Y-91480000D02*
X29420000Y-90020000D01*
%TO.C,Q3*%
X51030000Y-72240000D02*
X51030000Y-73700000D01*
X51030000Y-72240000D02*
X50100000Y-72240000D01*
X47870000Y-72240000D02*
X47870000Y-74400000D01*
X47870000Y-72240000D02*
X48800000Y-72240000D01*
%TO.C,J1*%
X22065000Y-88890000D02*
X24865000Y-88890000D01*
X24865000Y-80890000D02*
X26415000Y-80890000D01*
X24865000Y-80890000D02*
X24865000Y-81190000D01*
X28115000Y-83340000D02*
X28115000Y-84140000D01*
X28115000Y-84140000D02*
X27665000Y-83740000D01*
X22065000Y-81190000D02*
X24865000Y-81190000D01*
X27665000Y-83740000D02*
X28115000Y-83340000D01*
X24865000Y-89190000D02*
X26415000Y-89190000D01*
X24865000Y-88890000D02*
X24865000Y-89190000D01*
%TO.C,C2*%
X24865580Y-79490000D02*
X24584420Y-79490000D01*
X24865580Y-80510000D02*
X24584420Y-80510000D01*
%TO.C,C5*%
X30910000Y-76140580D02*
X30910000Y-75859420D01*
X29890000Y-76140580D02*
X29890000Y-75859420D01*
%TO.C,C4*%
X42984420Y-76910000D02*
X43265580Y-76910000D01*
X42984420Y-75890000D02*
X43265580Y-75890000D01*
%TO.C,C1*%
X38640580Y-75890000D02*
X38359420Y-75890000D01*
X38640580Y-76910000D02*
X38359420Y-76910000D01*
%TO.C,TP17*%
X50400000Y-87250000D02*
X50400000Y-85850000D01*
X50400000Y-85850000D02*
X51800000Y-85850000D01*
X51800000Y-85850000D02*
X51800000Y-87250000D01*
X51800000Y-87250000D02*
X50400000Y-87250000D01*
%TO.C,TP20*%
X64000000Y-76300000D02*
X64000000Y-77700000D01*
X64000000Y-77700000D02*
X62600000Y-77700000D01*
X62600000Y-77700000D02*
X62600000Y-76300000D01*
X62600000Y-76300000D02*
X64000000Y-76300000D01*
%TO.C,TP15*%
X53950000Y-89300000D02*
X52550000Y-89300000D01*
X52550000Y-87900000D02*
X53950000Y-87900000D01*
X53950000Y-87900000D02*
X53950000Y-89300000D01*
X52550000Y-89300000D02*
X52550000Y-87900000D01*
%TO.C,TP23*%
X64000000Y-75600000D02*
X62600000Y-75600000D01*
X62600000Y-74200000D02*
X64000000Y-74200000D01*
X62600000Y-75600000D02*
X62600000Y-74200000D01*
X64000000Y-74200000D02*
X64000000Y-75600000D01*
%TO.C,R26*%
X67927500Y-86854724D02*
X67927500Y-86345276D01*
X68972500Y-86854724D02*
X68972500Y-86345276D01*
%TO.C,TP16*%
X53100000Y-74400000D02*
X53100000Y-75800000D01*
X51700000Y-75800000D02*
X51700000Y-74400000D01*
X53100000Y-75800000D02*
X51700000Y-75800000D01*
X51700000Y-74400000D02*
X53100000Y-74400000D01*
%TO.C,TP18*%
X51800000Y-89300000D02*
X50400000Y-89300000D01*
X51800000Y-87900000D02*
X51800000Y-89300000D01*
X50400000Y-89300000D02*
X50400000Y-87900000D01*
X50400000Y-87900000D02*
X51800000Y-87900000D01*
%TO.C,C25*%
X68934420Y-91310000D02*
X69215580Y-91310000D01*
X68934420Y-90290000D02*
X69215580Y-90290000D01*
%TO.C,TP21*%
X64000000Y-78400000D02*
X64000000Y-79800000D01*
X62600000Y-78400000D02*
X64000000Y-78400000D01*
X64000000Y-79800000D02*
X62600000Y-79800000D01*
X62600000Y-79800000D02*
X62600000Y-78400000D01*
%TO.C,TP19*%
X51800000Y-85150000D02*
X50400000Y-85150000D01*
X51800000Y-83750000D02*
X51800000Y-85150000D01*
X50400000Y-83750000D02*
X51800000Y-83750000D01*
X50400000Y-85150000D02*
X50400000Y-83750000D01*
%TO.C,TP22*%
X53950000Y-87250000D02*
X52550000Y-87250000D01*
X52550000Y-85850000D02*
X53950000Y-85850000D01*
X52550000Y-87250000D02*
X52550000Y-85850000D01*
X53950000Y-85850000D02*
X53950000Y-87250000D01*
%TD*%
M02*
