M48
; DRILL file {KiCad 6.0.11-2627ca5db0~126~ubuntu20.04.1} date Mo 30 Okt 2023 14:57:18
; FORMAT={-:-/ absolute / metric / decimal}
; #@! TF.CreationDate,2023-10-30T14:57:18+01:00
; #@! TF.GenerationSoftware,Kicad,Pcbnew,6.0.11-2627ca5db0~126~ubuntu20.04.1
; #@! TF.FileFunction,Plated,1,2,PTH
FMAT,2
METRIC
; #@! TA.AperFunction,Plated,PTH,ViaDrill
T1C0.250
; #@! TA.AperFunction,Plated,PTH,ViaDrill
T2C0.400
; #@! TA.AperFunction,Plated,PTH,ComponentDrill
T3C0.650
; #@! TA.AperFunction,Plated,PTH,ComponentDrill
T4C0.700
; #@! TA.AperFunction,Plated,PTH,ComponentDrill
T5C1.000
%
G90
G05
T1
X22.5Y-75.0
X23.8Y-80.2
X25.0Y-75.0
X25.0Y-90.0
X25.0Y-92.5
X27.5Y-75.0
X27.5Y-92.5
X29.2Y-79.8
X29.3Y-77.25
X29.3Y-77.9
X29.3Y-78.5
X30.0Y-72.5
X30.4Y-75.2
X32.5Y-72.5
X32.5Y-75.0
X32.5Y-82.5
X32.6Y-87.0
X35.0Y-75.0
X35.0Y-80.0
X35.0Y-82.5
X36.0Y-84.4
X36.512Y-81.2
X36.6Y-92.4
X37.1Y-82.8
X37.1Y-85.2
X37.1Y-86.8
X37.587Y-79.388
X40.0Y-72.5
X40.0Y-75.0
X40.0Y-86.0
X41.0Y-82.0
X41.0Y-84.0
X43.25Y-91.825
X43.85Y-81.15
X44.4Y-82.0
X44.8Y-86.4
X45.0Y-75.0
X45.2Y-84.0
X46.85Y-90.75
X47.5Y-72.5
X47.5Y-75.0
X47.5Y-77.4
X47.5Y-78.0
X49.45Y-85.25
X49.55Y-84.2
X49.8Y-87.2
X50.2Y-75.4
X50.4Y-74.0
X51.0Y-82.4
X51.1Y-84.45
X51.1Y-86.55
X51.1Y-88.6
X52.4Y-75.1
X52.75Y-91.0
X53.1Y-92.45
X53.25Y-86.55
X53.25Y-88.6
X54.0Y-77.4
X54.05Y-83.95
X54.3Y-80.25
X54.38Y-81.117
X54.85Y-83.15
X54.95Y-82.0
X55.0Y-85.0
X55.0Y-87.5
X55.15Y-90.9
X56.3Y-75.45
X56.3Y-80.2
X56.5Y-92.5
X56.55Y-79.5
X56.8Y-78.35
X56.9Y-86.1
X56.9Y-87.75
X56.9Y-89.275
X56.9Y-90.8
X57.0Y-84.8
X57.062Y-82.388
X57.2Y-81.117
X57.5Y-75.0
X58.3Y-90.3
X59.35Y-90.3
X59.4Y-84.75
X59.75Y-80.5
X59.9Y-79.1
X60.0Y-75.0
X61.3Y-79.1
X61.65Y-91.5
X61.8Y-83.8
X61.85Y-92.4
X61.9Y-81.4
X62.5Y-82.5
X62.5Y-85.0
X62.5Y-87.5
X62.5Y-90.0
X63.3Y-74.9
X63.3Y-77.0
X63.3Y-79.1
X65.0Y-72.5
X65.0Y-75.0
X65.0Y-87.5
X67.5Y-75.0
X68.4Y-72.2
X68.4Y-84.0
X68.425Y-82.3
X68.7Y-93.4
X70.0Y-72.5
X70.0Y-75.0
X70.0Y-80.7
X71.7Y-82.1
X72.5Y-72.5
X72.5Y-75.0
X73.4Y-82.2
X73.6Y-91.5
X73.8Y-86.3
X73.8Y-88.75
X73.9Y-84.4
X74.3Y-83.3
X74.7Y-86.55
X75.0Y-75.0
X75.05Y-84.45
X76.1Y-86.9
X76.2Y-72.2
X76.6Y-90.6
X77.0Y-83.4
X77.5Y-72.5
X77.5Y-75.0
X77.5Y-90.2
X79.9Y-92.8
X81.0Y-84.9
X81.2Y-86.7
X82.6Y-74.906
X82.6Y-77.406
X82.6Y-84.906
X82.6Y-87.406
X82.6Y-89.906
X82.8Y-93.206
X84.106Y-80.2
X85.1Y-77.406
X85.1Y-87.406
X85.244Y-93.25
X85.4Y-71.25
X87.3Y-72.706
X87.6Y-74.906
X87.6Y-77.406
X87.6Y-79.906
X87.6Y-82.406
X87.6Y-84.906
X87.6Y-87.406
X87.6Y-89.906
X89.2Y-71.206
X89.2Y-93.106
X90.1Y-74.906
X90.1Y-77.406
X90.1Y-82.406
X90.1Y-84.906
X90.1Y-87.406
X90.1Y-89.906
X90.9Y-93.206
X91.206Y-80.2
X91.75Y-84.306
X92.6Y-77.406
X92.6Y-87.406
X93.094Y-93.25
X93.1Y-71.206
X95.1Y-74.906
X95.1Y-77.406
X95.1Y-79.906
X95.1Y-82.406
X95.1Y-84.906
X95.1Y-87.406
X95.1Y-89.906
X95.3Y-72.806
T2
X24.3Y-72.1
X24.4Y-71.0
X25.8Y-77.3
X25.8Y-78.4
X27.2Y-71.0
X27.2Y-72.1
X29.4Y-88.9
X32.18Y-91.72
X32.4Y-88.0
X33.64Y-90.74
X35.6Y-92.8
X36.6Y-88.7
X37.0Y-90.5
X37.5Y-76.4
X40.5Y-78.0
X43.0Y-78.0
X44.0Y-76.4
X48.1Y-83.0
X48.2Y-81.0
X49.0Y-79.5
T5
X27.0Y-91.0
X30.5Y-83.0
X30.5Y-86.5
X32.25Y-79.25
X53.34Y-72.3
X55.88Y-72.3
X58.42Y-72.3
X60.96Y-72.3
T3
G00X26.485Y-82.62
M15
G01X26.885Y-82.62
M16
G05
G00X26.485Y-87.46
M15
G01X26.885Y-87.46
M16
G05
T4
G00X23.435Y-82.31
M15
G01X23.935Y-82.31
M16
G05
G00X23.435Y-87.77
M15
G01X23.935Y-87.77
M16
G05
T0
M30
