%TF.GenerationSoftware,KiCad,Pcbnew,6.0.11-2627ca5db0~126~ubuntu20.04.1*%
%TF.CreationDate,2023-10-30T14:57:06+01:00*%
%TF.ProjectId,usb-interface,7573622d-696e-4746-9572-666163652e6b,rev?*%
%TF.SameCoordinates,Original*%
%TF.FileFunction,Drillmap*%
%TF.FilePolarity,Positive*%
%FSLAX45Y45*%
G04 Gerber Fmt 4.5, Leading zero omitted, Abs format (unit mm)*
G04 Created by KiCad (PCBNEW 6.0.11-2627ca5db0~126~ubuntu20.04.1) date 2023-10-30 14:57:06*
%MOMM*%
%LPD*%
G01*
G04 APERTURE LIST*
%ADD10C,0.050000*%
%ADD11C,0.200000*%
G04 APERTURE END LIST*
D10*
X9750000Y-6995000D02*
X2200000Y-7000000D01*
X2200000Y-7000000D02*
X2200000Y-9450000D01*
X9750000Y-9445000D02*
X9750000Y-6995000D01*
X2200000Y-9450000D02*
X9750000Y-9445000D01*
D11*
X2455119Y-9762976D02*
X2455119Y-9562976D01*
X2502738Y-9562976D01*
X2531310Y-9572500D01*
X2550357Y-9591548D01*
X2559881Y-9610595D01*
X2569405Y-9648690D01*
X2569405Y-9677262D01*
X2559881Y-9715357D01*
X2550357Y-9734405D01*
X2531310Y-9753452D01*
X2502738Y-9762976D01*
X2455119Y-9762976D01*
X2655119Y-9762976D02*
X2655119Y-9629643D01*
X2655119Y-9667738D02*
X2664643Y-9648690D01*
X2674167Y-9639167D01*
X2693214Y-9629643D01*
X2712262Y-9629643D01*
X2778929Y-9762976D02*
X2778929Y-9629643D01*
X2778929Y-9562976D02*
X2769405Y-9572500D01*
X2778929Y-9582024D01*
X2788452Y-9572500D01*
X2778929Y-9562976D01*
X2778929Y-9582024D01*
X2902738Y-9762976D02*
X2883690Y-9753452D01*
X2874167Y-9734405D01*
X2874167Y-9562976D01*
X3007500Y-9762976D02*
X2988452Y-9753452D01*
X2978928Y-9734405D01*
X2978928Y-9562976D01*
X3236071Y-9762976D02*
X3236071Y-9562976D01*
X3302738Y-9705833D01*
X3369405Y-9562976D01*
X3369405Y-9762976D01*
X3550357Y-9762976D02*
X3550357Y-9658214D01*
X3540833Y-9639167D01*
X3521786Y-9629643D01*
X3483690Y-9629643D01*
X3464643Y-9639167D01*
X3550357Y-9753452D02*
X3531309Y-9762976D01*
X3483690Y-9762976D01*
X3464643Y-9753452D01*
X3455119Y-9734405D01*
X3455119Y-9715357D01*
X3464643Y-9696310D01*
X3483690Y-9686786D01*
X3531309Y-9686786D01*
X3550357Y-9677262D01*
X3645595Y-9629643D02*
X3645595Y-9829643D01*
X3645595Y-9639167D02*
X3664643Y-9629643D01*
X3702738Y-9629643D01*
X3721786Y-9639167D01*
X3731309Y-9648690D01*
X3740833Y-9667738D01*
X3740833Y-9724881D01*
X3731309Y-9743929D01*
X3721786Y-9753452D01*
X3702738Y-9762976D01*
X3664643Y-9762976D01*
X3645595Y-9753452D01*
X3826548Y-9743929D02*
X3836071Y-9753452D01*
X3826548Y-9762976D01*
X3817024Y-9753452D01*
X3826548Y-9743929D01*
X3826548Y-9762976D01*
X3826548Y-9639167D02*
X3836071Y-9648690D01*
X3826548Y-9658214D01*
X3817024Y-9648690D01*
X3826548Y-9639167D01*
X3826548Y-9658214D01*
M02*
