%TF.GenerationSoftware,KiCad,Pcbnew,6.0.11-2627ca5db0~126~ubuntu20.04.1*%
%TF.CreationDate,2023-10-30T14:57:03+01:00*%
%TF.ProjectId,usb-interface,7573622d-696e-4746-9572-666163652e6b,rev?*%
%TF.SameCoordinates,Original*%
%TF.FileFunction,Paste,Bot*%
%TF.FilePolarity,Positive*%
%FSLAX46Y46*%
G04 Gerber Fmt 4.6, Leading zero omitted, Abs format (unit mm)*
G04 Created by KiCad (PCBNEW 6.0.11-2627ca5db0~126~ubuntu20.04.1) date 2023-10-30 14:57:03*
%MOMM*%
%LPD*%
G01*
G04 APERTURE LIST*
%ADD10C,0.150000*%
G04 APERTURE END LIST*
D10*
X55342976Y-89902142D02*
X55390595Y-89949761D01*
X55533452Y-89997380D01*
X55628690Y-89997380D01*
X55771547Y-89949761D01*
X55866785Y-89854523D01*
X55914404Y-89759285D01*
X55962023Y-89568809D01*
X55962023Y-89425952D01*
X55914404Y-89235476D01*
X55866785Y-89140238D01*
X55771547Y-89045000D01*
X55628690Y-88997380D01*
X55533452Y-88997380D01*
X55390595Y-89045000D01*
X55342976Y-89092619D01*
X54581071Y-89473571D02*
X54438214Y-89521190D01*
X54390595Y-89568809D01*
X54342976Y-89664047D01*
X54342976Y-89806904D01*
X54390595Y-89902142D01*
X54438214Y-89949761D01*
X54533452Y-89997380D01*
X54914404Y-89997380D01*
X54914404Y-88997380D01*
X54581071Y-88997380D01*
X54485833Y-89045000D01*
X54438214Y-89092619D01*
X54390595Y-89187857D01*
X54390595Y-89283095D01*
X54438214Y-89378333D01*
X54485833Y-89425952D01*
X54581071Y-89473571D01*
X54914404Y-89473571D01*
X53914404Y-88997380D02*
X53914404Y-89806904D01*
X53866785Y-89902142D01*
X53819166Y-89949761D01*
X53723928Y-89997380D01*
X53533452Y-89997380D01*
X53438214Y-89949761D01*
X53390595Y-89902142D01*
X53342976Y-89806904D01*
X53342976Y-88997380D01*
X52914404Y-89949761D02*
X52771547Y-89997380D01*
X52533452Y-89997380D01*
X52438214Y-89949761D01*
X52390595Y-89902142D01*
X52342976Y-89806904D01*
X52342976Y-89711666D01*
X52390595Y-89616428D01*
X52438214Y-89568809D01*
X52533452Y-89521190D01*
X52723928Y-89473571D01*
X52819166Y-89425952D01*
X52866785Y-89378333D01*
X52914404Y-89283095D01*
X52914404Y-89187857D01*
X52866785Y-89092619D01*
X52819166Y-89045000D01*
X52723928Y-88997380D01*
X52485833Y-88997380D01*
X52342976Y-89045000D01*
X51962023Y-89092619D02*
X51914404Y-89045000D01*
X51819166Y-88997380D01*
X51581071Y-88997380D01*
X51485833Y-89045000D01*
X51438214Y-89092619D01*
X51390595Y-89187857D01*
X51390595Y-89283095D01*
X51438214Y-89425952D01*
X52009642Y-89997380D01*
X51390595Y-89997380D01*
X55342976Y-91512142D02*
X55390595Y-91559761D01*
X55533452Y-91607380D01*
X55628690Y-91607380D01*
X55771547Y-91559761D01*
X55866785Y-91464523D01*
X55914404Y-91369285D01*
X55962023Y-91178809D01*
X55962023Y-91035952D01*
X55914404Y-90845476D01*
X55866785Y-90750238D01*
X55771547Y-90655000D01*
X55628690Y-90607380D01*
X55533452Y-90607380D01*
X55390595Y-90655000D01*
X55342976Y-90702619D01*
X55057261Y-90607380D02*
X54485833Y-90607380D01*
X54771547Y-91607380D02*
X54771547Y-90607380D01*
X54200119Y-91559761D02*
X54057261Y-91607380D01*
X53819166Y-91607380D01*
X53723928Y-91559761D01*
X53676309Y-91512142D01*
X53628690Y-91416904D01*
X53628690Y-91321666D01*
X53676309Y-91226428D01*
X53723928Y-91178809D01*
X53819166Y-91131190D01*
X54009642Y-91083571D01*
X54104880Y-91035952D01*
X54152500Y-90988333D01*
X54200119Y-90893095D01*
X54200119Y-90797857D01*
X54152500Y-90702619D01*
X54104880Y-90655000D01*
X54009642Y-90607380D01*
X53771547Y-90607380D01*
X53628690Y-90655000D01*
X50092976Y-88642380D02*
X50426309Y-88166190D01*
X50664404Y-88642380D02*
X50664404Y-87642380D01*
X50283452Y-87642380D01*
X50188214Y-87690000D01*
X50140595Y-87737619D01*
X50092976Y-87832857D01*
X50092976Y-87975714D01*
X50140595Y-88070952D01*
X50188214Y-88118571D01*
X50283452Y-88166190D01*
X50664404Y-88166190D01*
X49664404Y-88642380D02*
X49664404Y-87642380D01*
X50664404Y-90252380D02*
X50664404Y-89252380D01*
X50426309Y-89252380D01*
X50283452Y-89300000D01*
X50188214Y-89395238D01*
X50140595Y-89490476D01*
X50092976Y-89680952D01*
X50092976Y-89823809D01*
X50140595Y-90014285D01*
X50188214Y-90109523D01*
X50283452Y-90204761D01*
X50426309Y-90252380D01*
X50664404Y-90252380D01*
X49712023Y-90204761D02*
X49569166Y-90252380D01*
X49331071Y-90252380D01*
X49235833Y-90204761D01*
X49188214Y-90157142D01*
X49140595Y-90061904D01*
X49140595Y-89966666D01*
X49188214Y-89871428D01*
X49235833Y-89823809D01*
X49331071Y-89776190D01*
X49521547Y-89728571D01*
X49616785Y-89680952D01*
X49664404Y-89633333D01*
X49712023Y-89538095D01*
X49712023Y-89442857D01*
X49664404Y-89347619D01*
X49616785Y-89300000D01*
X49521547Y-89252380D01*
X49283452Y-89252380D01*
X49140595Y-89300000D01*
X48140595Y-90252380D02*
X48473928Y-89776190D01*
X48712023Y-90252380D02*
X48712023Y-89252380D01*
X48331071Y-89252380D01*
X48235833Y-89300000D01*
X48188214Y-89347619D01*
X48140595Y-89442857D01*
X48140595Y-89585714D01*
X48188214Y-89680952D01*
X48235833Y-89728571D01*
X48331071Y-89776190D01*
X48712023Y-89776190D01*
X50664404Y-91862380D02*
X50664404Y-90862380D01*
X50426309Y-90862380D01*
X50283452Y-90910000D01*
X50188214Y-91005238D01*
X50140595Y-91100476D01*
X50092976Y-91290952D01*
X50092976Y-91433809D01*
X50140595Y-91624285D01*
X50188214Y-91719523D01*
X50283452Y-91814761D01*
X50426309Y-91862380D01*
X50664404Y-91862380D01*
X49092976Y-91767142D02*
X49140595Y-91814761D01*
X49283452Y-91862380D01*
X49378690Y-91862380D01*
X49521547Y-91814761D01*
X49616785Y-91719523D01*
X49664404Y-91624285D01*
X49712023Y-91433809D01*
X49712023Y-91290952D01*
X49664404Y-91100476D01*
X49616785Y-91005238D01*
X49521547Y-90910000D01*
X49378690Y-90862380D01*
X49283452Y-90862380D01*
X49140595Y-90910000D01*
X49092976Y-90957619D01*
X48664404Y-91862380D02*
X48664404Y-90862380D01*
X48426309Y-90862380D01*
X48283452Y-90910000D01*
X48188214Y-91005238D01*
X48140595Y-91100476D01*
X48092976Y-91290952D01*
X48092976Y-91433809D01*
X48140595Y-91624285D01*
X48188214Y-91719523D01*
X48283452Y-91814761D01*
X48426309Y-91862380D01*
X48664404Y-91862380D01*
X94504761Y-91808093D02*
X94504761Y-90808093D01*
X94028571Y-91808093D02*
X94028571Y-90808093D01*
X93457142Y-91808093D01*
X93457142Y-90808093D01*
X93219047Y-91903332D02*
X92457142Y-91903332D01*
X91647619Y-91808093D02*
X91980952Y-91331903D01*
X92219047Y-91808093D02*
X92219047Y-90808093D01*
X91838095Y-90808093D01*
X91742857Y-90855713D01*
X91695238Y-90903332D01*
X91647619Y-90998570D01*
X91647619Y-91141427D01*
X91695238Y-91236665D01*
X91742857Y-91284284D01*
X91838095Y-91331903D01*
X92219047Y-91331903D01*
X87230952Y-72608093D02*
X87040476Y-72608093D01*
X86945238Y-72655713D01*
X86850000Y-72750951D01*
X86802380Y-72941427D01*
X86802380Y-73274760D01*
X86850000Y-73465236D01*
X86945238Y-73560474D01*
X87040476Y-73608093D01*
X87230952Y-73608093D01*
X87326190Y-73560474D01*
X87421428Y-73465236D01*
X87469047Y-73274760D01*
X87469047Y-72941427D01*
X87421428Y-72750951D01*
X87326190Y-72655713D01*
X87230952Y-72608093D01*
X86373809Y-72608093D02*
X86373809Y-73417617D01*
X86326190Y-73512855D01*
X86278571Y-73560474D01*
X86183333Y-73608093D01*
X85992857Y-73608093D01*
X85897619Y-73560474D01*
X85850000Y-73512855D01*
X85802380Y-73417617D01*
X85802380Y-72608093D01*
X85469047Y-72608093D02*
X84897619Y-72608093D01*
X85183333Y-73608093D02*
X85183333Y-72608093D01*
X84802380Y-73703332D02*
X84040476Y-73703332D01*
X83230952Y-73608093D02*
X83564285Y-73131903D01*
X83802380Y-73608093D02*
X83802380Y-72608093D01*
X83421428Y-72608093D01*
X83326190Y-72655713D01*
X83278571Y-72703332D01*
X83230952Y-72798570D01*
X83230952Y-72941427D01*
X83278571Y-73036665D01*
X83326190Y-73084284D01*
X83421428Y-73131903D01*
X83802380Y-73131903D01*
X62780952Y-73850000D02*
X62876190Y-73802380D01*
X63019047Y-73802380D01*
X63161904Y-73850000D01*
X63257142Y-73945238D01*
X63304761Y-74040476D01*
X63352380Y-74230952D01*
X63352380Y-74373809D01*
X63304761Y-74564285D01*
X63257142Y-74659523D01*
X63161904Y-74754761D01*
X63019047Y-74802380D01*
X62923809Y-74802380D01*
X62780952Y-74754761D01*
X62733333Y-74707142D01*
X62733333Y-74373809D01*
X62923809Y-74373809D01*
X62304761Y-74802380D02*
X62304761Y-73802380D01*
X61733333Y-74802380D01*
X61733333Y-73802380D01*
X61257142Y-74802380D02*
X61257142Y-73802380D01*
X61019047Y-73802380D01*
X60876190Y-73850000D01*
X60780952Y-73945238D01*
X60733333Y-74040476D01*
X60685714Y-74230952D01*
X60685714Y-74373809D01*
X60733333Y-74564285D01*
X60780952Y-74659523D01*
X60876190Y-74754761D01*
X61019047Y-74802380D01*
X61257142Y-74802380D01*
X59638095Y-73802380D02*
X59066666Y-73802380D01*
X59352380Y-74802380D02*
X59352380Y-73802380D01*
X58828571Y-73802380D02*
X58161904Y-74802380D01*
X58161904Y-73802380D02*
X58828571Y-74802380D01*
X56447619Y-74802380D02*
X56780952Y-74326190D01*
X57019047Y-74802380D02*
X57019047Y-73802380D01*
X56638095Y-73802380D01*
X56542857Y-73850000D01*
X56495238Y-73897619D01*
X56447619Y-73992857D01*
X56447619Y-74135714D01*
X56495238Y-74230952D01*
X56542857Y-74278571D01*
X56638095Y-74326190D01*
X57019047Y-74326190D01*
X56114285Y-73802380D02*
X55447619Y-74802380D01*
X55447619Y-73802380D02*
X56114285Y-74802380D01*
X54304761Y-74802380D02*
X54304761Y-73802380D01*
X53923809Y-73802380D01*
X53828571Y-73850000D01*
X53780952Y-73897619D01*
X53733333Y-73992857D01*
X53733333Y-74135714D01*
X53780952Y-74230952D01*
X53828571Y-74278571D01*
X53923809Y-74326190D01*
X54304761Y-74326190D01*
X53447619Y-73802380D02*
X52876190Y-73802380D01*
X53161904Y-74802380D02*
X53161904Y-73802380D01*
X52685714Y-73802380D02*
X52114285Y-73802380D01*
X52400000Y-74802380D02*
X52400000Y-73802380D01*
X94885714Y-72608093D02*
X94695238Y-72608093D01*
X94600000Y-72655713D01*
X94504761Y-72750951D01*
X94457142Y-72941427D01*
X94457142Y-73274760D01*
X94504761Y-73465236D01*
X94600000Y-73560474D01*
X94695238Y-73608093D01*
X94885714Y-73608093D01*
X94980952Y-73560474D01*
X95076190Y-73465236D01*
X95123809Y-73274760D01*
X95123809Y-72941427D01*
X95076190Y-72750951D01*
X94980952Y-72655713D01*
X94885714Y-72608093D01*
X94028571Y-72608093D02*
X94028571Y-73417617D01*
X93980952Y-73512855D01*
X93933333Y-73560474D01*
X93838095Y-73608093D01*
X93647619Y-73608093D01*
X93552380Y-73560474D01*
X93504761Y-73512855D01*
X93457142Y-73417617D01*
X93457142Y-72608093D01*
X93123809Y-72608093D02*
X92552380Y-72608093D01*
X92838095Y-73608093D02*
X92838095Y-72608093D01*
X92457142Y-73703332D02*
X91695238Y-73703332D01*
X90980952Y-73608093D02*
X91457142Y-73608093D01*
X91457142Y-72608093D01*
X68316666Y-75547142D02*
X68364285Y-75594761D01*
X68507142Y-75642380D01*
X68602380Y-75642380D01*
X68745238Y-75594761D01*
X68840476Y-75499523D01*
X68888095Y-75404285D01*
X68935714Y-75213809D01*
X68935714Y-75070952D01*
X68888095Y-74880476D01*
X68840476Y-74785238D01*
X68745238Y-74690000D01*
X68602380Y-74642380D01*
X68507142Y-74642380D01*
X68364285Y-74690000D01*
X68316666Y-74737619D01*
X67554761Y-75118571D02*
X67411904Y-75166190D01*
X67364285Y-75213809D01*
X67316666Y-75309047D01*
X67316666Y-75451904D01*
X67364285Y-75547142D01*
X67411904Y-75594761D01*
X67507142Y-75642380D01*
X67888095Y-75642380D01*
X67888095Y-74642380D01*
X67554761Y-74642380D01*
X67459523Y-74690000D01*
X67411904Y-74737619D01*
X67364285Y-74832857D01*
X67364285Y-74928095D01*
X67411904Y-75023333D01*
X67459523Y-75070952D01*
X67554761Y-75118571D01*
X67888095Y-75118571D01*
X66888095Y-74642380D02*
X66888095Y-75451904D01*
X66840476Y-75547142D01*
X66792857Y-75594761D01*
X66697619Y-75642380D01*
X66507142Y-75642380D01*
X66411904Y-75594761D01*
X66364285Y-75547142D01*
X66316666Y-75451904D01*
X66316666Y-74642380D01*
X65888095Y-75594761D02*
X65745238Y-75642380D01*
X65507142Y-75642380D01*
X65411904Y-75594761D01*
X65364285Y-75547142D01*
X65316666Y-75451904D01*
X65316666Y-75356666D01*
X65364285Y-75261428D01*
X65411904Y-75213809D01*
X65507142Y-75166190D01*
X65697619Y-75118571D01*
X65792857Y-75070952D01*
X65840476Y-75023333D01*
X65888095Y-74928095D01*
X65888095Y-74832857D01*
X65840476Y-74737619D01*
X65792857Y-74690000D01*
X65697619Y-74642380D01*
X65459523Y-74642380D01*
X65316666Y-74690000D01*
X64983333Y-74642380D02*
X64364285Y-74642380D01*
X64697619Y-75023333D01*
X64554761Y-75023333D01*
X64459523Y-75070952D01*
X64411904Y-75118571D01*
X64364285Y-75213809D01*
X64364285Y-75451904D01*
X64411904Y-75547142D01*
X64459523Y-75594761D01*
X64554761Y-75642380D01*
X64840476Y-75642380D01*
X64935714Y-75594761D01*
X64983333Y-75547142D01*
X68316666Y-77157142D02*
X68364285Y-77204761D01*
X68507142Y-77252380D01*
X68602380Y-77252380D01*
X68745238Y-77204761D01*
X68840476Y-77109523D01*
X68888095Y-77014285D01*
X68935714Y-76823809D01*
X68935714Y-76680952D01*
X68888095Y-76490476D01*
X68840476Y-76395238D01*
X68745238Y-76300000D01*
X68602380Y-76252380D01*
X68507142Y-76252380D01*
X68364285Y-76300000D01*
X68316666Y-76347619D01*
X67554761Y-76728571D02*
X67411904Y-76776190D01*
X67364285Y-76823809D01*
X67316666Y-76919047D01*
X67316666Y-77061904D01*
X67364285Y-77157142D01*
X67411904Y-77204761D01*
X67507142Y-77252380D01*
X67888095Y-77252380D01*
X67888095Y-76252380D01*
X67554761Y-76252380D01*
X67459523Y-76300000D01*
X67411904Y-76347619D01*
X67364285Y-76442857D01*
X67364285Y-76538095D01*
X67411904Y-76633333D01*
X67459523Y-76680952D01*
X67554761Y-76728571D01*
X67888095Y-76728571D01*
X66888095Y-76252380D02*
X66888095Y-77061904D01*
X66840476Y-77157142D01*
X66792857Y-77204761D01*
X66697619Y-77252380D01*
X66507142Y-77252380D01*
X66411904Y-77204761D01*
X66364285Y-77157142D01*
X66316666Y-77061904D01*
X66316666Y-76252380D01*
X65888095Y-77204761D02*
X65745238Y-77252380D01*
X65507142Y-77252380D01*
X65411904Y-77204761D01*
X65364285Y-77157142D01*
X65316666Y-77061904D01*
X65316666Y-76966666D01*
X65364285Y-76871428D01*
X65411904Y-76823809D01*
X65507142Y-76776190D01*
X65697619Y-76728571D01*
X65792857Y-76680952D01*
X65840476Y-76633333D01*
X65888095Y-76538095D01*
X65888095Y-76442857D01*
X65840476Y-76347619D01*
X65792857Y-76300000D01*
X65697619Y-76252380D01*
X65459523Y-76252380D01*
X65316666Y-76300000D01*
X64697619Y-76252380D02*
X64602380Y-76252380D01*
X64507142Y-76300000D01*
X64459523Y-76347619D01*
X64411904Y-76442857D01*
X64364285Y-76633333D01*
X64364285Y-76871428D01*
X64411904Y-77061904D01*
X64459523Y-77157142D01*
X64507142Y-77204761D01*
X64602380Y-77252380D01*
X64697619Y-77252380D01*
X64792857Y-77204761D01*
X64840476Y-77157142D01*
X64888095Y-77061904D01*
X64935714Y-76871428D01*
X64935714Y-76633333D01*
X64888095Y-76442857D01*
X64840476Y-76347619D01*
X64792857Y-76300000D01*
X64697619Y-76252380D01*
X68316666Y-78767142D02*
X68364285Y-78814761D01*
X68507142Y-78862380D01*
X68602380Y-78862380D01*
X68745238Y-78814761D01*
X68840476Y-78719523D01*
X68888095Y-78624285D01*
X68935714Y-78433809D01*
X68935714Y-78290952D01*
X68888095Y-78100476D01*
X68840476Y-78005238D01*
X68745238Y-77910000D01*
X68602380Y-77862380D01*
X68507142Y-77862380D01*
X68364285Y-77910000D01*
X68316666Y-77957619D01*
X67554761Y-78338571D02*
X67411904Y-78386190D01*
X67364285Y-78433809D01*
X67316666Y-78529047D01*
X67316666Y-78671904D01*
X67364285Y-78767142D01*
X67411904Y-78814761D01*
X67507142Y-78862380D01*
X67888095Y-78862380D01*
X67888095Y-77862380D01*
X67554761Y-77862380D01*
X67459523Y-77910000D01*
X67411904Y-77957619D01*
X67364285Y-78052857D01*
X67364285Y-78148095D01*
X67411904Y-78243333D01*
X67459523Y-78290952D01*
X67554761Y-78338571D01*
X67888095Y-78338571D01*
X66888095Y-77862380D02*
X66888095Y-78671904D01*
X66840476Y-78767142D01*
X66792857Y-78814761D01*
X66697619Y-78862380D01*
X66507142Y-78862380D01*
X66411904Y-78814761D01*
X66364285Y-78767142D01*
X66316666Y-78671904D01*
X66316666Y-77862380D01*
X65888095Y-78814761D02*
X65745238Y-78862380D01*
X65507142Y-78862380D01*
X65411904Y-78814761D01*
X65364285Y-78767142D01*
X65316666Y-78671904D01*
X65316666Y-78576666D01*
X65364285Y-78481428D01*
X65411904Y-78433809D01*
X65507142Y-78386190D01*
X65697619Y-78338571D01*
X65792857Y-78290952D01*
X65840476Y-78243333D01*
X65888095Y-78148095D01*
X65888095Y-78052857D01*
X65840476Y-77957619D01*
X65792857Y-77910000D01*
X65697619Y-77862380D01*
X65459523Y-77862380D01*
X65316666Y-77910000D01*
X64364285Y-78862380D02*
X64935714Y-78862380D01*
X64650000Y-78862380D02*
X64650000Y-77862380D01*
X64745238Y-78005238D01*
X64840476Y-78100476D01*
X64935714Y-78148095D01*
X53442857Y-77252380D02*
X53442857Y-76252380D01*
X53204761Y-76252380D01*
X53061904Y-76300000D01*
X52966666Y-76395238D01*
X52919047Y-76490476D01*
X52871428Y-76680952D01*
X52871428Y-76823809D01*
X52919047Y-77014285D01*
X52966666Y-77109523D01*
X53061904Y-77204761D01*
X53204761Y-77252380D01*
X53442857Y-77252380D01*
X52585714Y-76252380D02*
X52014285Y-76252380D01*
X52300000Y-77252380D02*
X52300000Y-76252380D01*
X51109523Y-77252380D02*
X51442857Y-76776190D01*
X51680952Y-77252380D02*
X51680952Y-76252380D01*
X51300000Y-76252380D01*
X51204761Y-76300000D01*
X51157142Y-76347619D01*
X51109523Y-76442857D01*
X51109523Y-76585714D01*
X51157142Y-76680952D01*
X51204761Y-76728571D01*
X51300000Y-76776190D01*
X51680952Y-76776190D01*
X28130952Y-84397380D02*
X28130952Y-83397380D01*
X27892857Y-83397380D01*
X27750000Y-83445000D01*
X27654761Y-83540238D01*
X27607142Y-83635476D01*
X27559523Y-83825952D01*
X27559523Y-83968809D01*
X27607142Y-84159285D01*
X27654761Y-84254523D01*
X27750000Y-84349761D01*
X27892857Y-84397380D01*
X28130952Y-84397380D01*
X27130952Y-84016428D02*
X26369047Y-84016428D01*
X28130952Y-86007380D02*
X28130952Y-85007380D01*
X27892857Y-85007380D01*
X27750000Y-85055000D01*
X27654761Y-85150238D01*
X27607142Y-85245476D01*
X27559523Y-85435952D01*
X27559523Y-85578809D01*
X27607142Y-85769285D01*
X27654761Y-85864523D01*
X27750000Y-85959761D01*
X27892857Y-86007380D01*
X28130952Y-86007380D01*
X27130952Y-85626428D02*
X26369047Y-85626428D01*
X26750000Y-86007380D02*
X26750000Y-85245476D01*
X86509523Y-91808093D02*
X86509523Y-90808093D01*
X86033333Y-91808093D02*
X86033333Y-90808093D01*
X85461904Y-91808093D01*
X85461904Y-90808093D01*
X85223809Y-91903332D02*
X84461904Y-91903332D01*
X83747619Y-91808093D02*
X84223809Y-91808093D01*
X84223809Y-90808093D01*
M02*
